<svg width="19" height="19" viewBox="0 0 19 19" fill="none" xmlns="http://www.w3.org/2000/svg">
<path d="M9.33328 5.59995C11.3951 5.59995 13.0666 7.2714 13.0666 9.33325C13.0666 11.3951 11.3951 13.0666 9.33328 13.0666C7.27143 13.0666 5.59998 11.3951 5.59998 9.33325C5.59998 7.2714 7.27143 5.59995 9.33328 5.59995Z" fill="#E21F23"/>
<path d="M10.2666 16.7355V18.6665H8.39993V16.7355C6.75756 16.5258 5.23126 15.7768 4.0605 14.606C2.88974 13.4352 2.14075 11.909 1.93105 10.2666H0V8.39993H1.93105C2.14044 6.75743 2.88933 5.23097 4.06015 4.06015C5.23097 2.88933 6.75743 2.14045 8.39993 1.93105V0H10.2666V1.93105C11.9091 2.14029 13.4357 2.88913 14.6065 4.05998C15.7774 5.23082 16.5262 6.75737 16.7355 8.39993H18.6665V10.2666H16.7355C16.5261 11.9091 15.7772 13.4355 14.6064 14.6064C13.4355 15.7772 11.9091 16.5261 10.2666 16.7355ZM9.33325 3.7333C6.24488 3.7333 3.7333 6.24488 3.7333 9.33325C3.7333 12.4216 6.24488 14.9332 9.33325 14.9332C12.4216 14.9332 14.9332 12.4216 14.9332 9.33325C14.9332 6.24488 12.4216 3.7333 9.33325 3.7333Z" fill="#E21F23"/>
</svg>
