<svg width="8" height="8" viewBox="0 0 8 8" fill="none" xmlns="http://www.w3.org/2000/svg">
<path d="M7.56616 4.13028C7.56616 4.28056 7.50853 4.42583 7.4008 4.53102C7.29557 4.63872 7.15025 4.69883 6.99993 4.69883H4.73502V6.96298C4.73502 7.11326 4.67489 7.25852 4.56715 7.36372C4.46193 7.46891 4.31912 7.52902 4.16879 7.52902C4.01846 7.52902 3.87315 7.46891 3.76792 7.36372C3.66019 7.25852 3.60006 7.11326 3.60006 6.96298V4.69883H1.33515C1.18482 4.69883 1.03951 4.63872 0.934279 4.53102C0.829051 4.42583 0.768921 4.28056 0.768921 4.13028C0.768921 3.98001 0.829051 3.83725 0.934279 3.72955C1.03951 3.62436 1.18482 3.56425 1.33515 3.56425H3.60006V1.30009C3.60006 1.14982 3.66019 1.00455 3.76792 0.89936C3.87315 0.791662 4.01846 0.731552 4.16879 0.731552C4.31912 0.731552 4.46193 0.791662 4.56715 0.89936C4.67489 1.00455 4.73502 1.14982 4.73502 1.30009V3.56425H6.99993C7.15025 3.56425 7.29557 3.62436 7.4008 3.72955C7.50853 3.83725 7.56616 3.98001 7.56616 4.13028Z" fill="#E21F23"/>
</svg>
