<svg width="30" height="30" viewBox="0 0 30 30" fill="none" xmlns="http://www.w3.org/2000/svg">
<path d="M28.4118 23.3034C28.4118 24.471 27.745 25.5386 26.6909 26.0407C24.7008 26.9887 20.9088 28.2662 14.9246 28.2662C8.94052 28.2662 5.14851 26.9887 3.15843 26.0407C2.10433 25.5386 1.43747 24.471 1.43747 23.3034C1.43747 21.6261 2.7972 20.2664 4.4745 20.2664H25.3748C27.0521 20.2664 28.4118 21.6261 28.4118 23.3034Z" fill="#E59328"/>
<path d="M28.2945 18.6769C28.2945 17.5093 27.6277 16.4417 26.5736 15.9396C24.5835 14.9916 20.7915 13.7141 14.8074 13.7141C8.82327 13.7141 5.03125 14.9916 3.04118 15.9396C1.98708 16.4417 1.32022 17.5093 1.32022 18.6769C1.32022 18.6937 1.32122 18.7104 1.32151 18.7271C1.32122 18.744 1.32022 18.7606 1.32022 18.7774C1.32022 19.945 1.98708 21.0126 3.04118 21.5147C5.03125 22.4627 8.82327 23.7402 14.8074 23.7402C20.7915 23.7402 24.5835 22.4627 26.5736 21.5147C27.6277 21.0126 28.2945 19.945 28.2945 18.7774C28.2945 18.7605 28.2936 18.7439 28.2933 18.7271C28.2936 18.7103 28.2945 18.6937 28.2945 18.6769Z" fill="#7A2F18"/>
<path d="M15.1077 21.6616C21.9493 21.6616 27.4954 19.7724 27.4954 17.4419C27.4954 15.1115 21.9493 13.2223 15.1077 13.2223C8.26623 13.2223 2.72009 15.1115 2.72009 17.4419C2.72009 19.7724 8.26623 21.6616 15.1077 21.6616Z" fill="#DB1D1D"/>
<path d="M15.1077 20.0552C21.9493 20.0552 27.4954 18.166 27.4954 15.8356C27.4954 13.5052 21.9493 11.616 15.1077 11.616C8.26623 11.616 2.72009 13.5052 2.72009 15.8356C2.72009 18.166 8.26623 20.0552 15.1077 20.0552Z" fill="#FF473E"/>
<path d="M28.5352 13.1775C27.1193 12.3915 25.0498 12.0823 23.2306 12.0831C22.2383 12.0836 21.228 12.1871 20.2809 12.3807C19.5431 12.5316 18.8221 12.7224 18.0634 12.8206C17.9362 12.8259 17.8089 12.8271 17.6816 12.8242C17.5944 12.8107 17.5075 12.7947 17.4212 12.7762C17.1066 12.6706 16.8079 12.5469 16.5031 12.4287C16.0145 12.2394 15.5029 12.0914 14.9767 11.9517C14.051 11.7062 13.076 11.5891 12.0837 11.5306C10.21 11.42 8.27837 11.7024 6.61243 12.2698C6.34566 12.2918 6.08248 12.3457 5.8285 12.4302C4.12794 12.9973 2.6877 13.9025 1.6762 14.9598C1.46139 15.1843 1.2712 15.4191 1.10795 15.6616C0.752115 16.1903 0.432896 16.7341 0.74854 17.3187C1.33952 18.4135 3.10571 18.8128 4.73046 18.556C5.85112 18.3788 6.72499 17.8933 7.60384 17.4341C7.82415 17.3296 8.0522 17.2344 8.29272 17.1527C8.31944 17.147 8.3461 18.138 8.373 18.1328C8.59835 18.2681 8.81057 18.4126 9.04091 18.5445C9.43325 18.7694 9.85301 18.986 10.2994 19.1635C11.2135 19.5272 12.3068 19.7601 13.3824 19.7536C14.4813 19.7469 15.5309 19.5165 16.398 19.0767C16.86 18.8424 17.2389 18.566 17.5317 18.2295C17.6388 18.1063 17.7314 17.9787 17.8328 17.8545C17.9157 17.8688 18.543 17.0797 18.7618 17.1837C19.3095 17.472 19.8442 17.7749 20.4377 18.0207C21.2585 18.3606 22.2244 18.5647 23.1986 18.5664C25.0744 18.5698 26.844 17.8591 28.1463 17.0217C28.8183 16.5895 29.4468 16.016 29.6316 15.3985C29.8764 14.5805 29.5273 13.7283 28.5352 13.1775ZM9.32725 14.4583C9.71905 14.3742 10.1148 14.3096 10.513 14.2647C11.0623 14.2303 11.6132 14.2303 12.1625 14.2647C12.6783 14.323 13.1824 14.4119 13.6725 14.5324C14.0612 14.6552 14.4264 15.7994 14.7984 15.9409C14.4216 16.2328 14.2092 16.5811 13.8988 16.903C13.883 16.9137 13.8667 16.9241 13.8505 16.9344C13.8102 16.9505 13.7697 16.9659 13.7288 16.9805C13.6525 16.996 13.5758 17.0096 13.4988 17.0213C13.4002 17.0239 13.3015 17.0238 13.2029 17.0209C13.0558 16.9991 12.9095 16.9717 12.7644 16.9389C12.5313 16.8619 12.3026 16.772 12.0795 16.6696C11.6704 16.4403 11.3004 16.1839 10.8733 15.9673C10.4121 15.7334 9.88841 14.5523 9.32725 14.4583ZM24.7159 15.3779C24.4176 15.5184 24.1068 15.6448 23.778 15.7515C23.632 15.7846 23.4848 15.8122 23.3367 15.8341C23.2604 15.836 23.184 15.8361 23.1077 15.8345C23.0319 15.8225 22.9565 15.8087 22.8814 15.793C22.6201 15.704 22.3743 15.5982 22.136 15.4839C21.855 15.335 21.5772 15.1811 21.2923 15.0342C21.6816 14.9547 22.0739 14.885 22.477 14.837C22.9899 14.8056 23.5042 14.8059 24.017 14.8379C24.4372 14.8862 24.8544 14.9572 25.2668 15.0508C25.0928 15.1664 24.9076 15.2745 24.7159 15.3779Z" fill="#00B89C"/>
<path d="M6.74097 19.455C5.95458 18.1829 4.44292 15.8381 2.55427 13.397C-0.159445 13.8575 21.4682 10.2121 21.4682 10.2121C27.5078 10.8482 28.3056 13.8363 28.3086 15.3597C28.3096 15.8473 27.8914 16.2309 27.405 16.1965C14.4663 15.2804 9.6219 18.1686 8.02628 19.6361C7.63751 19.9935 7.0187 19.9042 6.74097 19.455Z" fill="#FECB21"/>
<path d="M14.8074 1.49924C7.58893 1.49924 1.32022 6.0583 1.32022 11.5498C1.32022 14.4778 7.3586 16.8514 14.8074 16.8514C22.2562 16.8514 28.2945 14.4778 28.2945 11.5498C28.2945 6.21363 22.0258 1.49924 14.8074 1.49924Z" fill="#E59328"/>
<path d="M6.34927 7.81102L6.91535 9.03756C6.94743 9.10708 6.95058 9.18649 6.92411 9.25834C6.89764 9.33018 6.84371 9.38856 6.7742 9.42065C6.73377 9.4391 6.68965 9.44806 6.64523 9.44683C6.60081 9.4456 6.55725 9.43422 6.51791 9.41356L5.32459 8.78057C4.96142 8.58791 4.82314 8.13733 5.0158 7.77416C5.20845 7.411 5.65904 7.27272 6.0222 7.46537C6.16623 7.54154 6.28117 7.66301 6.34927 7.81102ZM18.282 3.47051C17.9188 3.27785 17.4682 3.41613 17.2755 3.7793C17.0829 4.14246 17.2212 4.59305 17.5843 4.78571L18.7777 5.41869C18.817 5.43936 18.8606 5.45074 18.905 5.45197C18.9494 5.4532 18.9935 5.44424 19.0339 5.42578C19.1035 5.3937 19.1574 5.33531 19.1839 5.26347C19.2103 5.19163 19.2072 5.11222 19.1751 5.0427L18.609 3.81615C18.5409 3.66817 18.4259 3.54672 18.282 3.47051ZM11.5671 4.97889C11.3313 4.64209 10.8671 4.56024 10.5303 4.79608C10.1936 5.03186 10.1117 5.49604 10.3475 5.83283L11.1223 6.93938C11.148 6.97568 11.1816 7.00563 11.2206 7.02693C11.2596 7.04823 11.3029 7.06031 11.3473 7.06225C11.4238 7.06529 11.4984 7.03782 11.5547 6.98588C11.6109 6.93394 11.6443 6.86178 11.6473 6.78528L11.7012 5.43551C11.7078 5.27272 11.6607 5.11227 11.5671 4.97889ZM25.2495 8.26969C25.4276 7.88104 25.2569 7.4216 24.8683 7.24354C24.4796 7.06541 24.0202 7.2361 23.8421 7.62469L23.4054 8.57766C23.3813 8.63015 23.373 8.68846 23.3812 8.74561C23.3895 8.80275 23.414 8.8563 23.452 8.89984C23.4899 8.94338 23.5395 8.97506 23.595 8.99109C23.6505 9.00712 23.7094 9.00682 23.7647 8.99022L24.7686 8.68846C24.9728 8.62606 25.1535 8.47904 25.2495 8.26969ZM14.207 11.4134C13.8029 11.338 13.4142 11.6044 13.3387 12.0086C13.2633 12.4127 13.5297 12.8014 13.9338 12.8769L15.2617 13.1248C15.3054 13.1327 15.3504 13.1306 15.3932 13.1185C15.4359 13.1064 15.4753 13.0847 15.5084 13.055C15.5365 13.0296 15.5594 12.9989 15.5756 12.9646C15.5918 12.9304 15.6012 12.8932 15.6031 12.8554C15.6049 12.8175 15.5993 12.7796 15.5866 12.7439C15.5739 12.7082 15.5542 12.6754 15.5287 12.6473L14.6224 11.6457C14.5132 11.5247 14.3672 11.4431 14.207 11.4134ZM21.3643 12.5416C21.5289 12.9183 21.9677 13.0903 22.3444 12.9257C22.7212 12.7611 22.8932 12.3223 22.7286 11.9456L22.1878 10.7077C22.1698 10.6671 22.1428 10.6311 22.1087 10.6025C22.0747 10.5739 22.0346 10.5535 21.9915 10.5428C21.9546 10.5338 21.9164 10.5322 21.8789 10.538C21.8414 10.5438 21.8055 10.5569 21.7731 10.5766C21.7407 10.5963 21.7125 10.6222 21.6901 10.6528C21.6678 10.6834 21.6516 10.7182 21.6427 10.755L21.3231 12.0675C21.2845 12.2258 21.2989 12.3923 21.3643 12.5416ZM10.1829 12.1717C10.2301 11.7586 9.93351 11.3855 9.52043 11.3382C9.10734 11.291 8.73422 11.5876 8.68699 12.0007L8.53189 13.358C8.52804 13.3926 8.53163 13.4277 8.54242 13.4609C8.55321 13.494 8.57096 13.5245 8.59447 13.5502C8.63813 13.5977 8.69887 13.626 8.76333 13.6287C8.8278 13.6314 8.89071 13.6084 8.93824 13.5648L9.94424 12.6406C10.0776 12.5181 10.1623 12.3516 10.1829 12.1717ZM17.0054 9.71918C17.3913 9.86092 17.8191 9.66299 17.9608 9.27709C18.1025 8.89119 17.9046 8.46346 17.5187 8.32172L16.2507 7.85602C16.2089 7.84088 16.1642 7.83551 16.12 7.8403C16.0759 7.84509 16.0334 7.85993 15.9958 7.88367C15.9313 7.92487 15.8857 7.99002 15.8692 8.06478C15.8527 8.13955 15.8666 8.21781 15.9078 8.28235L16.6346 9.421C16.7221 9.55842 16.8524 9.66321 17.0054 9.71918Z" fill="#FFCD7D"/>
</svg>
