<svg width="13" height="14" viewBox="0 0 13 14" fill="none" xmlns="http://www.w3.org/2000/svg">
<path d="M11.8897 11.4493L11.8888 11.4484L8.16745 7.82132L8.16722 7.82109L7.33214 7.01784L11.8888 2.58773C11.985 2.49415 12.0637 2.38962 12.1133 2.27383C12.1619 2.16036 12.1916 2.03638 12.1916 1.91128C12.1916 1.78074 12.1725 1.65535 12.1126 1.53811C12.0646 1.4265 11.9966 1.31262 11.9073 1.2258L11.9074 1.22575L11.9054 1.22402C11.8103 1.14079 11.7034 1.06479 11.585 1.01682C11.466 0.968606 11.3293 0.95 11.2043 0.95C11.0762 0.95 10.9495 0.978745 10.8249 1.02535L10.8249 1.02533L10.8236 1.02584C10.7052 1.07381 10.5978 1.15001 10.5106 1.23483L5.25795 6.34158C5.16913 6.42794 5.10063 6.5329 5.05197 6.64646L5.05195 6.64645L5.05143 6.64776C5.0034 6.76916 4.97368 6.8928 4.97368 7.01803C4.97368 7.14313 5.00334 7.26712 5.05197 7.38058C5.10063 7.49414 5.16913 7.5991 5.25795 7.68546L10.5106 12.7922L10.5105 12.7922L10.5115 12.7931C10.6981 12.965 10.9426 13.05 11.195 13.05C11.4498 13.05 11.6942 12.9453 11.8702 12.7742C12.0556 12.5939 12.1542 12.365 12.1545 12.1167C12.164 11.8678 12.0654 11.6295 11.8897 11.4493Z" fill="#B3B3B3" stroke="#B3B3B3" stroke-width="0.1"/>
<path d="M0.393475 2.55071L0.394386 2.55162L4.11575 6.17868L4.11599 6.17891L4.95106 6.98216L0.39443 11.4123C0.298187 11.5058 0.219508 11.6104 0.169882 11.7262C0.121255 11.8396 0.0915976 11.9636 0.0915976 12.0887C0.0915976 12.2193 0.110675 12.3446 0.170566 12.4619C0.218576 12.5735 0.286572 12.6874 0.375869 12.7742L0.375821 12.7742L0.377798 12.776C0.472924 12.8592 0.579773 12.9352 0.698197 12.9832C0.817204 13.0314 0.953925 13.05 1.0789 13.05C1.20704 13.05 1.33371 13.0213 1.45834 12.9747L1.45835 12.9747L1.4596 12.9742C1.57803 12.9262 1.68541 12.85 1.77265 12.7652L7.02525 7.65842C7.11407 7.57206 7.18257 7.4671 7.23124 7.35354L7.23126 7.35355L7.23177 7.35224C7.2798 7.23084 7.30952 7.1072 7.30952 6.98197C7.30952 6.85687 7.27986 6.73288 7.23124 6.61942C7.18257 6.50586 7.11407 6.4009 7.02525 6.31454L1.77265 1.20779L1.77266 1.20777L1.77167 1.20686C1.58513 1.03504 1.34061 0.950028 1.08818 0.950028C0.833406 0.950028 0.589025 1.05469 0.412992 1.22583C0.227622 1.40605 0.12898 1.635 0.128719 1.88325C0.119156 2.13223 0.217837 2.37046 0.393475 2.55071Z" fill="#B3B3B3" stroke="#B3B3B3" stroke-width="0.1"/>
</svg>
