<svg width="22" height="16" viewBox="0 0 22 16" fill="none" xmlns="http://www.w3.org/2000/svg">
<path d="M2.66667 0C1.95942 0 1.28115 0.280951 0.781049 0.781048C0.280952 1.28115 0 1.95942 0 2.66667L0 13.3333C0 14.0406 0.280952 14.7189 0.781049 15.219C1.28115 15.719 1.95942 16 2.66667 16H18.6667C19.3739 16 20.0522 15.719 20.5523 15.219C21.0524 14.7189 21.3333 14.0406 21.3333 13.3333V2.66667C21.3333 1.95942 21.0524 1.28115 20.5523 0.781048C20.0522 0.280951 19.3739 0 18.6667 0H2.66667ZM20 2.66667V9.33333H1.33333V2.66667C1.33333 2.31304 1.47381 1.97391 1.72386 1.72386C1.97391 1.47381 2.31304 1.33333 2.66667 1.33333H18.6667C19.0203 1.33333 19.3594 1.47381 19.6095 1.72386C19.8595 1.97391 20 2.31304 20 2.66667ZM18.6667 14.6667H2.66667C2.31304 14.6667 1.97391 14.5262 1.72386 14.2761C1.47381 14.0261 1.33333 13.687 1.33333 13.3333V12H20V13.3333C20 13.687 19.8595 14.0261 19.6095 14.2761C19.3594 14.5262 19.0203 14.6667 18.6667 14.6667Z" fill="#C5C5C5"/>
</svg>
