<svg width="22" height="17" viewBox="0 0 22 17" fill="none" xmlns="http://www.w3.org/2000/svg">
<path d="M19.9375 1.375C20.1198 1.375 20.2947 1.44743 20.4236 1.57636C20.5526 1.7053 20.625 1.88016 20.625 2.0625V14.4375C20.625 14.6198 20.5526 14.7947 20.4236 14.9236C20.2947 15.0526 20.1198 15.125 19.9375 15.125H2.0625C1.88016 15.125 1.7053 15.0526 1.57636 14.9236C1.44743 14.7947 1.375 14.6198 1.375 14.4375V2.0625C1.375 1.88016 1.44743 1.7053 1.57636 1.57636C1.7053 1.44743 1.88016 1.375 2.0625 1.375H19.9375ZM2.0625 0C1.51549 0 0.990886 0.217299 0.604092 0.604092C0.217298 0.990886 0 1.51549 0 2.0625L0 14.4375C0 14.9845 0.217298 15.5091 0.604092 15.8959C0.990886 16.2827 1.51549 16.5 2.0625 16.5H19.9375C20.4845 16.5 21.0091 16.2827 21.3959 15.8959C21.7827 15.5091 22 14.9845 22 14.4375V2.0625C22 1.51549 21.7827 0.990886 21.3959 0.604092C21.0091 0.217299 20.4845 0 19.9375 0H2.0625Z" fill="#C5C5C5"/>
<path d="M9.62494 4.81251C9.62494 4.63017 9.69737 4.4553 9.8263 4.32637C9.95524 4.19744 10.1301 4.12501 10.3124 4.12501H17.1874C17.3698 4.12501 17.5446 4.19744 17.6736 4.32637C17.8025 4.4553 17.8749 4.63017 17.8749 4.81251C17.8749 4.99484 17.8025 5.16971 17.6736 5.29864C17.5446 5.42757 17.3698 5.50001 17.1874 5.50001H10.3124C10.1301 5.50001 9.95524 5.42757 9.8263 5.29864C9.69737 5.16971 9.62494 4.99484 9.62494 4.81251ZM7.56794 3.63826C7.63197 3.70212 7.68276 3.77799 7.71742 3.86151C7.75208 3.94504 7.76992 4.03458 7.76992 4.12501C7.76992 4.21544 7.75208 4.30498 7.71742 4.3885C7.68276 4.47203 7.63197 4.5479 7.56794 4.61176L5.50544 6.67426C5.44158 6.73828 5.36571 6.78908 5.28219 6.82374C5.19866 6.8584 5.10912 6.87624 5.01869 6.87624C4.92826 6.87624 4.83872 6.8584 4.75519 6.82374C4.67167 6.78908 4.5958 6.73828 4.53194 6.67426L3.84444 5.98676C3.78052 5.92284 3.72981 5.84695 3.69522 5.76344C3.66063 5.67992 3.64282 5.59041 3.64282 5.50001C3.64282 5.31744 3.71535 5.14235 3.84444 5.01326C3.97354 4.88416 4.14862 4.81164 4.33119 4.81164C4.51376 4.81164 4.68885 4.88416 4.81794 5.01326L5.01869 5.21538L6.59444 3.63826C6.6583 3.57423 6.73417 3.52344 6.81769 3.48878C6.90122 3.45412 6.99076 3.43628 7.08119 3.43628C7.17162 3.43628 7.26116 3.45412 7.34469 3.48878C7.42821 3.52344 7.50408 3.57423 7.56794 3.63826ZM9.62494 10.3125C9.62494 10.1302 9.69737 9.9553 9.8263 9.82637C9.95524 9.69744 10.1301 9.62501 10.3124 9.62501H17.1874C17.3698 9.62501 17.5446 9.69744 17.6736 9.82637C17.8025 9.9553 17.8749 10.1302 17.8749 10.3125C17.8749 10.4948 17.8025 10.6697 17.6736 10.7986C17.5446 10.9276 17.3698 11 17.1874 11H10.3124C10.1301 11 9.95524 10.9276 9.8263 10.7986C9.69737 10.6697 9.62494 10.4948 9.62494 10.3125ZM7.56794 9.13826C7.63197 9.20212 7.68276 9.27799 7.71742 9.36151C7.75208 9.44504 7.76992 9.53458 7.76992 9.62501C7.76992 9.71544 7.75208 9.80498 7.71742 9.8885C7.68276 9.97203 7.63197 10.0479 7.56794 10.1118L5.50544 12.1743C5.44158 12.2383 5.36571 12.2891 5.28219 12.3237C5.19866 12.3584 5.10912 12.3762 5.01869 12.3762C4.92826 12.3762 4.83872 12.3584 4.75519 12.3237C4.67167 12.2891 4.5958 12.2383 4.53194 12.1743L3.84444 11.4868C3.78052 11.4228 3.72981 11.347 3.69522 11.2634C3.66063 11.1799 3.64282 11.0904 3.64282 11C3.64282 10.9096 3.66063 10.8201 3.69522 10.7366C3.72981 10.6531 3.78052 10.5772 3.84444 10.5133C3.90836 10.4493 3.98425 10.3986 4.06776 10.364C4.15128 10.3294 4.24079 10.3116 4.33119 10.3116C4.42159 10.3116 4.5111 10.3294 4.59462 10.364C4.67813 10.3986 4.75402 10.4493 4.81794 10.5133L5.01869 10.7154L6.59444 9.13826C6.6583 9.07423 6.73417 9.02344 6.81769 8.98878C6.90122 8.95412 6.99076 8.93628 7.08119 8.93628C7.17162 8.93628 7.26116 8.95412 7.34469 8.98878C7.42821 9.02344 7.50408 9.07423 7.56794 9.13826Z" fill="#C5C5C5"/>
</svg>
