<svg width="21" height="20" viewBox="0 0 21 20" fill="none" xmlns="http://www.w3.org/2000/svg">
<path d="M3.96567 5H17.5978C17.8741 5.00001 18.1472 5.05857 18.3997 5.17191C18.6522 5.28524 18.8784 5.45083 19.0637 5.65801C19.2491 5.86519 19.3894 6.10936 19.4758 6.37478C19.5621 6.64019 19.5925 6.92097 19.5651 7.199L18.9719 13.199C18.9231 13.6925 18.6948 14.1501 18.3313 14.4829C17.9678 14.8157 17.495 15 17.0047 15H7.56401C7.10677 15.0002 6.66361 14.84 6.30997 14.5469C5.95633 14.2537 5.71408 13.8456 5.62446 13.392L3.96567 5Z" stroke="black" stroke-width="2" stroke-linejoin="round"/>
<path d="M3.96566 5L3.16493 1.757C3.11138 1.54075 2.98794 1.34881 2.8142 1.21166C2.64047 1.0745 2.42641 1.00001 2.20604 1H1" stroke="black" stroke-width="2" stroke-linecap="round" stroke-linejoin="round"/>
<path d="M6.93134 19H8.90844" stroke="black" stroke-width="2" stroke-linecap="round" stroke-linejoin="round"/>
<path d="M14.8398 19H16.8169" stroke="black" stroke-width="2" stroke-linecap="round" stroke-linejoin="round"/>
</svg>
