<svg width="22" height="22" viewBox="0 0 22 22" fill="none" xmlns="http://www.w3.org/2000/svg">
<path d="M17.4167 6.41665C17.4167 5.40831 16.5917 4.58331 15.5833 4.58331H12.8333V6.41665H15.5833V8.84582L12.3933 12.8333H9.16668V8.24998H5.50001C3.47418 8.24998 1.83334 9.89082 1.83334 11.9167V14.6667H3.66668C3.66668 16.1883 4.89501 17.4167 6.41668 17.4167C7.93834 17.4167 9.16668 16.1883 9.16668 14.6667H13.2733L17.4167 9.48748V6.41665ZM3.66668 12.8333V11.9167C3.66668 10.9083 4.49168 10.0833 5.50001 10.0833H7.33334V12.8333H3.66668ZM6.41668 15.5833C5.91251 15.5833 5.50001 15.1708 5.50001 14.6667H7.33334C7.33334 15.1708 6.92084 15.5833 6.41668 15.5833Z" fill="#E21F23"/>
<path d="M4.58334 5.5H9.16668V7.33333H4.58334V5.5ZM17.4167 11.9167C15.895 11.9167 14.6667 13.145 14.6667 14.6667C14.6667 16.1883 15.895 17.4167 17.4167 17.4167C18.9383 17.4167 20.1667 16.1883 20.1667 14.6667C20.1667 13.145 18.9383 11.9167 17.4167 11.9167ZM17.4167 15.5833C16.9125 15.5833 16.5 15.1708 16.5 14.6667C16.5 14.1625 16.9125 13.75 17.4167 13.75C17.9208 13.75 18.3333 14.1625 18.3333 14.6667C18.3333 15.1708 17.9208 15.5833 17.4167 15.5833Z" fill="#E21F23"/>
</svg>
