<svg width="28" height="28" viewBox="0 0 28 28" fill="none" xmlns="http://www.w3.org/2000/svg">
<path d="M14.7778 21.1983C14.7778 21.1983 21 21.0327 22.2841 18.0289C23.1156 16.0837 21.8105 10.598 21.8105 7.19444C21.8105 6.04255 20.9028 5.44444 19.1536 5.44444H7.87814C7.00314 5.44444 5.28892 5.24066 5.28892 7.09722C5.28892 10.4292 3.91614 15.918 4.79581 17.8422C6.25492 21.0327 12.4445 21.1983 12.4445 21.1983V23.6273C12.4445 23.6273 8.87914 25.4473 8.16825 25.8697C7.40292 26.3068 7.91158 27.0068 8.21725 27.1273C8.72747 27.328 9.96958 27.9844 13.4906 27.9844C17.1002 27.9844 18.3144 27.2735 18.7523 27.1273C18.921 27.0713 19.7999 26.4024 18.7608 25.7872C16.9113 24.6921 14.7778 23.6273 14.7778 23.6273V21.1983Z" fill="#8899A6"/>
<path d="M21.7778 6.566C21.7778 7.82678 19.7968 8.84877 13.5154 8.84877C7.23411 8.84877 5.25311 7.82678 5.25311 6.566C5.25311 5.30444 7.23411 4.28322 13.5154 4.28322C19.7968 4.28322 21.7778 5.30522 21.7778 6.566Z" fill="#CCD6DD"/>
<path d="M6.57848 6.67567C8.1667 14.0646 4.69859 17.2402 8.19859 18.4722C12.4235 19.9586 14.8424 19.7112 18.6659 18.4722C22.1659 17.3382 19.8326 13.125 20.3187 6.96733C20.4447 5.383 6.57848 6.67567 6.57848 6.67567Z" fill="#CCD6DD"/>
<path d="M7.03269 11.3423C6.96813 12.1847 6.18491 16.1093 6.54658 17.0139C6.93546 17.9861 7.90769 19.5417 13.482 19.5417C17.5654 19.5417 20.1577 18.3104 20.5792 16.7549C20.9456 15.4016 20.3848 12.4126 20.3202 11.3104" fill="#F4900C"/>
<path d="M13.6111 12.4444C17.2623 12.4444 20.2222 11.9221 20.2222 11.2778C20.2222 10.6334 17.2623 10.1111 13.6111 10.1111C9.9599 10.1111 7 10.6334 7 11.2778C7 11.9221 9.9599 12.4444 13.6111 12.4444Z" fill="#FFCC4D"/>
<path d="M19.2461 3.81189C19.2461 3.81189 14.6401 14.6316 14.3998 15.1278C14.1066 15.7344 14.8672 16.5853 15.5431 15.5034C16.2183 14.4216 20.7861 4.84945 20.7861 4.84945L19.2461 3.81189Z" fill="#C1694F"/>
<path d="M13.4633 9.08055C10.1259 9.08055 7.49621 8.29733 6.50766 7.83378C6.32087 7.74621 6.17652 7.58803 6.10636 7.39403C6.0362 7.20004 6.04598 6.98612 6.13355 6.79933C6.22111 6.61255 6.37929 6.46819 6.57329 6.39804C6.76729 6.32788 6.98121 6.33765 7.16799 6.42522C7.22555 6.45244 13.1623 8.97322 20.0418 6.33889C20.1372 6.30237 20.2388 6.28501 20.3409 6.28778C20.443 6.29055 20.5436 6.31341 20.6369 6.35504C20.7302 6.39668 20.8143 6.45628 20.8846 6.53044C20.9548 6.60461 21.0098 6.69188 21.0463 6.78728C21.0828 6.88267 21.1002 6.98433 21.0974 7.08644C21.0946 7.18855 21.0718 7.28911 21.0301 7.38239C20.9885 7.47567 20.9289 7.55983 20.8547 7.63007C20.7806 7.70031 20.6933 7.75526 20.5979 7.79178C18.0919 8.75155 15.6287 9.08055 13.4633 9.08055Z" fill="white"/>
<path d="M16.0985 11.1891L15.5844 12.39C16.1265 12.3744 16.7098 12.3239 17.2052 12.2554L17.5755 11.501C17.0956 11.5096 16.6141 11.4108 16.0985 11.1891Z" fill="#FFAC33"/>
<path d="M14.3998 15.1278C14.1066 15.7344 14.8672 16.5853 15.5431 15.5034C15.7671 15.1441 16.4213 13.8476 17.1936 12.278C16.7355 12.3286 16.1397 12.3721 15.5781 12.4032C15.1921 13.3143 14.7993 14.2225 14.3998 15.1278Z" fill="#CC6F00"/>
<path d="M26.754 7.48534C25.9606 6.25489 22.5563 1.50112 22.4101 1.29656C22.3379 1.19633 22.2429 1.11468 22.133 1.05829C22.023 1.00191 21.9013 0.972414 21.7778 0.972227C20.643 0.972227 18.0732 0.959783 16.1521 0.950449C15.0002 0.945005 14.0809 0.940338 13.8382 0.940338C13.3342 0.940338 12.9204 1.27089 12.8084 1.764C12.5471 2.91512 13.9969 5.10145 18.9466 7.47523C22.2258 9.04712 24.1274 9.37767 25.1455 9.37767H25.1463C26.2928 9.37767 26.7314 8.94912 26.8979 8.58978C27.0643 8.22734 27.0099 7.81901 26.754 7.48534Z" fill="#77B255"/>
<path d="M20.3319 8.09745C22.771 9.13033 24.2815 9.37689 25.1448 9.37689H25.1456C26.292 9.37689 26.7307 8.94833 26.8971 8.589C27.0644 8.22733 27.0107 7.819 26.754 7.48533C26.2461 6.69744 24.6688 4.46678 23.5605 2.90889C24.192 4.91322 24.4246 7.93878 20.3319 8.09745Z" fill="#5C913B"/>
<path d="M21.924 2.62578C22.6491 2.62578 23.2369 2.03798 23.2369 1.31289C23.2369 0.5878 22.6491 0 21.924 0C21.1989 0 20.6111 0.5878 20.6111 1.31289C20.6111 2.03798 21.1989 2.62578 21.924 2.62578Z" fill="#3E721D"/>
</svg>
