<svg width="19" height="18" viewBox="0 0 19 18" fill="none" xmlns="http://www.w3.org/2000/svg">
<path d="M7.83681 0H1.90549C1.6433 0 1.39186 0.105357 1.20647 0.292893C1.02108 0.48043 0.916931 0.734784 0.916931 1V7C0.916931 7.26522 1.02108 7.51957 1.20647 7.70711C1.39186 7.89464 1.6433 8 1.90549 8H7.83681C8.09899 8 8.35044 7.89464 8.53583 7.70711C8.72122 7.51957 8.82537 7.26522 8.82537 7V1C8.82537 0.734784 8.72122 0.48043 8.53583 0.292893C8.35044 0.105357 8.09899 0 7.83681 0ZM6.84826 6H2.89404V2H6.84826V6ZM17.7224 0H11.791C11.5289 0 11.2774 0.105357 11.092 0.292893C10.9066 0.48043 10.8025 0.734784 10.8025 1V7C10.8025 7.26522 10.9066 7.51957 11.092 7.70711C11.2774 7.89464 11.5289 8 11.791 8H17.7224C17.9845 8 18.236 7.89464 18.4214 7.70711C18.6068 7.51957 18.7109 7.26522 18.7109 7V1C18.7109 0.734784 18.6068 0.48043 18.4214 0.292893C18.236 0.105357 17.9845 0 17.7224 0ZM16.7338 6H12.7796V2H16.7338V6ZM7.83681 10H1.90549C1.6433 10 1.39186 10.1054 1.20647 10.2929C1.02108 10.4804 0.916931 10.7348 0.916931 11V17C0.916931 17.2652 1.02108 17.5196 1.20647 17.7071C1.39186 17.8946 1.6433 18 1.90549 18H7.83681C8.09899 18 8.35044 17.8946 8.53583 17.7071C8.72122 17.5196 8.82537 17.2652 8.82537 17V11C8.82537 10.7348 8.72122 10.4804 8.53583 10.2929C8.35044 10.1054 8.09899 10 7.83681 10ZM6.84826 16H2.89404V12H6.84826V16ZM14.7567 10C12.5759 10 10.8025 11.794 10.8025 14C10.8025 16.206 12.5759 18 14.7567 18C16.9374 18 18.7109 16.206 18.7109 14C18.7109 11.794 16.9374 10 14.7567 10ZM14.7567 16C13.6663 16 12.7796 15.103 12.7796 14C12.7796 12.897 13.6663 12 14.7567 12C15.8471 12 16.7338 12.897 16.7338 14C16.7338 15.103 15.8471 16 14.7567 16Z" fill="black"/>
</svg>
