<svg width="16" height="15" viewBox="0 0 16 15" fill="none" xmlns="http://www.w3.org/2000/svg">
<path d="M12.3184 5.38557L13.496 4.22237C14.9992 5.07897 16 6.26272 16 7.57448C16 10.1933 12.0336 12.3103 8 12.3158C7.17917 12.3157 6.3606 12.231 5.5576 12.0629L6.9552 10.6832C7.296 10.718 7.6448 10.7361 7.9976 10.7354H7.9992C7.6672 10.7354 7.3472 10.6856 7.0464 10.5931L8.6312 9.0269C9.0072 8.86728 9.3088 8.56936 9.4712 8.19796L11.0552 6.63254C11.2043 7.10439 11.2394 7.60422 11.1575 8.09187C11.0755 8.57952 10.879 9.0414 10.5836 9.4404C10.2882 9.83941 9.90214 10.1644 9.4565 10.3893C9.01086 10.6142 8.51803 10.7327 8.0176 10.7354C11.4136 10.7235 14.4 9.00952 14.4 7.57448C14.4 6.8293 13.5824 6.0051 12.3184 5.38557ZM4.8768 8.26592C4.77196 7.80397 4.77351 7.32465 4.88133 6.86336C4.98916 6.40208 5.2005 5.97061 5.49977 5.60082C5.79903 5.23103 6.17857 4.93236 6.61035 4.72687C7.04213 4.52138 7.51512 4.41433 7.9944 4.4136C4.62 4.40175 1.6 6.1347 1.6 7.57448C1.6 8.28252 2.3232 9.05772 3.4616 9.66382L2.2952 10.8144C0.9072 9.96726 0 8.82698 0 7.57448C0 4.95569 3.9872 2.81973 8 2.83316C8.7312 2.83553 9.4616 2.90744 10.1672 3.0402L8.7456 4.44363C8.5136 4.42624 8.2784 4.41597 8.0416 4.4136C8.2672 4.41676 8.4872 4.44284 8.7 4.48946L4.8768 8.26592ZM15.2736 0.230971C15.4236 0.379159 15.5078 0.580118 15.5078 0.789656C15.5078 0.999193 15.4236 1.20015 15.2736 1.34834L1.6976 14.7584C1.62386 14.8339 1.53562 14.8941 1.43805 14.9356C1.34048 14.9771 1.23552 14.999 1.1293 15C1.02307 15.001 0.917717 14.981 0.819373 14.9414C0.721029 14.9017 0.631666 14.8431 0.556499 14.7689C0.481333 14.6948 0.421867 14.6066 0.381573 14.5095C0.341279 14.4124 0.320963 14.3084 0.32181 14.2035C0.322657 14.0986 0.344651 13.9948 0.386507 13.8984C0.428364 13.802 0.489246 13.7147 0.5656 13.6418L14.1416 0.231761C14.2159 0.158289 14.3041 0.100003 14.4012 0.060236C14.4984 0.0204688 14.6025 0 14.7076 0C14.8127 0 14.9168 0.0204688 15.014 0.060236C15.1111 0.100003 15.1993 0.157499 15.2736 0.230971Z" fill="#C5C5C5"/>
</svg>
