<svg width="21" height="15" viewBox="0 0 21 15" fill="none" xmlns="http://www.w3.org/2000/svg">
<path d="M19.5051 0.83374H2.36229C1.98341 0.83374 1.62004 0.98124 1.35213 1.24379C1.08423 1.50634 0.933716 1.86244 0.933716 2.23374V13.4337C0.933716 13.805 1.08423 14.1611 1.35213 14.4237C1.62004 14.6862 1.98341 14.8337 2.36229 14.8337H19.5051C19.884 14.8337 20.2474 14.6862 20.5153 14.4237C20.7832 14.1611 20.9337 13.805 20.9337 13.4337V2.23374C20.9337 1.86244 20.7832 1.50634 20.5153 1.24379C20.2474 0.98124 19.884 0.83374 19.5051 0.83374ZM17.9337 2.23374L10.9337 6.97974L3.93372 2.23374H17.9337ZM2.36229 13.4337V2.87074L10.5266 8.40774C10.6461 8.48903 10.7882 8.53259 10.9337 8.53259C11.0792 8.53259 11.2213 8.48903 11.3409 8.40774L19.5051 2.87074V13.4337H2.36229Z" fill="#C5C5C5"/>
</svg>
