<svg width="18" height="18" viewBox="0 0 18 18" fill="none" xmlns="http://www.w3.org/2000/svg">
<path d="M10.9386 9.05625C11.132 8.73872 11.3318 8.4104 11.5292 8.07188C12.19 6.93922 12.3112 5.79794 11.8897 4.67969C11.0393 2.42343 8.19632 1.04871 7.53816 0.829374L7.07536 0.675003L6.35304 2.11993L6.70162 2.40469C6.70552 2.40782 7.0927 2.74613 7.1185 3.25899C7.14054 3.69679 6.90053 4.16989 6.40532 4.66524C6.06142 5.0091 5.68398 5.34161 5.28436 5.69359C3.60298 7.1743 1.69727 8.85305 1.69727 12.0289C1.69727 12.0725 1.69768 12.1158 1.6985 12.1589C1.71068 12.8597 1.8612 13.5512 2.1414 14.1937C2.42161 14.8362 2.82598 15.417 3.33129 15.9027C4.34598 16.8897 5.70649 17.4405 7.12198 17.4375H10.3599L9.96018 16.6264C8.33621 13.3304 9.48466 11.4442 10.9386 9.05625ZM7.12198 16.3125C4.79464 16.3125 2.86632 14.4398 2.82329 12.1381C2.82263 12.1019 2.82229 12.0654 2.82227 12.0289C2.82227 9.36127 4.45197 7.92566 6.02802 6.53745C6.42314 6.1894 6.83177 5.82947 7.2008 5.46037C7.93043 4.73077 8.28077 3.97097 8.24209 3.20221C8.22521 2.87642 8.13873 2.55802 7.98848 2.26846C8.96723 2.80322 10.3623 3.8172 10.8371 5.07664C11.1375 5.87345 11.046 6.66781 10.5576 7.5052C10.3654 7.83457 10.1683 8.15826 9.97772 8.47132C8.58269 10.7624 7.25934 12.9355 8.59074 16.3125H7.12198Z" fill="#E21F23"/>
<path d="M16.4616 11.9928C16.4522 11.9556 16.4424 11.9183 16.4323 11.8808C16.0264 10.3926 13.7795 8.47905 13.5246 8.26576L13.0129 7.83749L12.6773 8.41433C11.9125 9.72917 11.2562 10.9284 10.9701 12.289C10.6439 13.8406 10.8635 15.4175 11.6416 17.1099L11.7921 17.4375H12.1745C12.8481 17.4394 13.5131 17.2867 14.1184 16.9911C14.7237 16.6955 15.253 16.2649 15.6655 15.7324C16.0756 15.2116 16.3606 14.6036 16.4986 13.9552C16.6366 13.3069 16.624 12.6355 16.4616 11.9928ZM14.7783 15.0403C14.5056 15.3923 14.1642 15.6851 13.7747 15.9009C13.3852 16.1166 12.9559 16.2509 12.5128 16.2953C11.404 13.627 12.0582 11.8082 13.3084 9.57649C14.1396 10.3497 15.1525 11.464 15.3469 12.1767C15.3551 12.2068 15.3629 12.2367 15.3704 12.2665C15.4906 12.7433 15.4997 13.2413 15.3971 13.7223C15.2944 14.2032 15.0827 14.6541 14.7783 15.0403Z" fill="#E21F23"/>
</svg>
