<svg width="22" height="20" viewBox="0 0 22 20" fill="none" xmlns="http://www.w3.org/2000/svg">
<path d="M20.6667 0H0.666667C0.489856 0 0.320286 0.070238 0.195262 0.195262C0.0702379 0.320287 0 0.489856 0 0.666667V1.78C0.000124654 1.93746 0.0314093 2.09333 0.0920512 2.23865C0.152693 2.38396 0.241493 2.51583 0.353333 2.62667L8 10.3867V17.1867L9.33333 17.6933V10C9.33384 9.91226 9.31702 9.82529 9.28385 9.74406C9.25067 9.66284 9.20179 9.58896 9.14 9.52667L1.33333 1.72667V1.33333H20V1.74L12.22 9.52667C12.1534 9.58671 12.0996 9.65958 12.0618 9.74091C12.0239 9.82224 12.0029 9.91036 12 10V18.8067L13.3333 19.3333V10.3333L20.98 2.66667C21.0936 2.55302 21.1834 2.41781 21.2441 2.26899C21.3048 2.12016 21.3351 1.96071 21.3333 1.8V0.666667C21.3333 0.489856 21.2631 0.320287 21.1381 0.195262C21.013 0.070238 20.8435 0 20.6667 0Z" fill="#E21F23"/>
</svg>
