<svg width="23" height="20" viewBox="0 0 23 20" fill="none" xmlns="http://www.w3.org/2000/svg">
<path d="M22.1919 4.0986C21.8545 3.29655 21.3679 2.56975 20.7595 1.95886C20.1506 1.34616 19.4327 0.85925 18.6449 0.524616C17.8279 0.176245 16.9517 -0.002072 16.067 1.81642e-05C14.8259 1.81642e-05 13.615 0.348889 12.5627 1.00787C12.311 1.1655 12.0718 1.33865 11.8453 1.5273C11.6187 1.33865 11.3795 1.1655 11.1278 1.00787C10.0755 0.348889 8.86461 1.81642e-05 7.62351 1.81642e-05C6.72982 1.81642e-05 5.86382 0.175746 5.04565 0.524616C4.25517 0.860566 3.54273 1.34382 2.931 1.95886C2.32177 2.56906 1.8351 3.29604 1.49857 4.0986C1.14865 4.93331 0.96991 5.8197 0.96991 6.73193C0.96991 7.59248 1.1411 8.4892 1.48095 9.40144C1.76542 10.1638 2.17325 10.9546 2.69436 11.7531C3.52008 13.0168 4.65544 14.3347 6.06521 15.6708C8.4014 17.8855 10.7149 19.4153 10.8131 19.4773L11.4097 19.8701C11.6741 20.0433 12.0139 20.0433 12.2783 19.8701L12.8749 19.4773C12.9731 19.4127 15.2841 17.8855 17.6228 15.6708C19.0326 14.3347 20.1679 13.0168 20.9936 11.7531C21.5147 10.9546 21.9251 10.1638 22.207 9.40144C22.5469 8.4892 22.7181 7.59248 22.7181 6.73193C22.7206 5.8197 22.5419 4.93331 22.1919 4.0986ZM11.8453 17.826C11.8453 17.826 2.88317 11.9314 2.88317 6.73193C2.88317 4.0986 5.00537 1.96403 7.62351 1.96403C9.46376 1.96403 11.0598 3.0184 11.8453 4.5586C12.6307 3.0184 14.2268 1.96403 16.067 1.96403C18.6851 1.96403 20.8073 4.0986 20.8073 6.73193C20.8073 11.9314 11.8453 17.826 11.8453 17.826Z" fill="black"/>
</svg>
