<svg width="22" height="22" viewBox="0 0 22 22" fill="none" xmlns="http://www.w3.org/2000/svg">
<path d="M21.6226 8.87828H20.75V8.83332H11V13.1667H17.1225C16.2293 15.6892 13.8291 17.5 11 17.5C7.41038 17.5 4.50001 14.5896 4.50001 11C4.50001 7.41037 7.41038 4.49999 11 4.49999C12.657 4.49999 14.1644 5.12507 15.3122 6.14611L18.3764 3.08191C16.4416 1.2787 13.8535 0.166656 11 0.166656C5.0173 0.166656 0.166672 5.01728 0.166672 11C0.166672 16.9827 5.0173 21.8333 11 21.8333C16.9827 21.8333 21.8333 16.9827 21.8333 11C21.8333 10.2736 21.7586 9.56457 21.6226 8.87828Z" fill="#FFC107"/>
</svg>
