<svg width="20" height="20" viewBox="0 0 20 20" fill="none" xmlns="http://www.w3.org/2000/svg">
<path d="M0.988314 11H1.97687V18C1.97687 19.103 2.8636 20 3.95398 20H15.8166C16.907 20 17.7937 19.103 17.7937 18V11H18.7823C18.9778 10.9999 19.1689 10.9412 19.3314 10.8314C19.4939 10.7215 19.6206 10.5653 19.6954 10.3826C19.7702 10.1999 19.7898 9.99888 19.7517 9.80493C19.7135 9.61097 19.6194 9.43281 19.4812 9.29296L10.5842 0.292957C10.4925 0.200011 10.3835 0.126273 10.2636 0.0759627C10.1437 0.0256519 10.0151 -0.000244141 9.88531 -0.000244141C9.75548 -0.000244141 9.62692 0.0256519 9.50699 0.0759627C9.38707 0.126273 9.27812 0.200011 9.1864 0.292957L0.289405 9.29296C0.151196 9.43281 0.0570793 9.61097 0.0189532 9.80493C-0.019173 9.99888 0.000403409 10.1999 0.0752074 10.3826C0.150011 10.5653 0.276684 10.7215 0.439212 10.8314C0.601741 10.9412 0.792827 10.9999 0.988314 11ZM7.9082 18V13H11.8624V18H7.9082ZM9.88531 2.41396L15.8166 8.41396V13L15.8176 18H13.8395V13C13.8395 11.897 12.9528 11 11.8624 11H7.9082C6.81782 11 5.93109 11.897 5.93109 13V18H3.95398V8.41396L9.88531 2.41396Z" fill="#E21F23"/>
</svg>
