<svg width="25" height="26" viewBox="0 0 25 26" fill="none" xmlns="http://www.w3.org/2000/svg">
<circle cx="12.5" cy="13.4728" r="12.5" fill="#E21F23"/>
<mask id="mask0_11_260" style="mask-type:alpha" maskUnits="userSpaceOnUse" x="0" y="0" width="25" height="26">
<circle cx="12.5" cy="13.4728" r="12.5" fill="#FFE14D"/>
</mask>
<g mask="url(#mask0_11_260)">
<path d="M18.9394 27.4879L12.5 20.6698L16.2879 14.6091V6.6546L27.2727 19.1546L18.9394 27.4879Z" fill="#CA0D11"/>
</g>
<g clip-path="url(#clip0_11_260)">
<path d="M12.5001 5.52203C9.16365 5.52203 6.44238 8.2433 6.44238 11.5797C6.44238 12.9031 6.86174 14.1612 7.65396 15.2143L12.1273 21.241C12.1924 21.3341 12.3696 21.4273 12.5001 21.4273C12.6399 21.4273 12.8077 21.3248 12.8729 21.2409C12.8914 21.2129 17.3928 15.1491 17.4301 15.0931C17.4395 15.0931 17.4395 15.0931 17.4395 15.0839C18.1664 14.0587 18.5577 12.8471 18.5577 11.5797C18.5578 8.24333 15.8365 5.52203 12.5001 5.52203ZM12.5001 14.8416C10.7015 14.8416 9.23825 13.3784 9.23825 11.5797C9.23825 9.78107 10.7015 8.3179 12.5001 8.3179C14.2987 8.3179 15.7619 9.78107 15.7619 11.5797C15.7619 13.3784 14.2987 14.8416 12.5001 14.8416Z" fill="white"/>
<path d="M12.5 5.51825V8.31412C14.2986 8.31412 15.7618 9.77729 15.7618 11.5759C15.7618 13.3746 14.2986 14.8378 12.5 14.8378V21.4235C12.6398 21.4235 12.8076 21.321 12.8728 21.2371C12.8914 21.2092 17.3927 15.1453 17.43 15.0893C17.4394 15.0893 17.4394 15.0893 17.4394 15.0801C18.1663 14.0549 18.5577 12.8434 18.5577 11.5759C18.5577 8.23951 15.8364 5.51825 12.5 5.51825Z" fill="white"/>
</g>
<defs>
<clipPath id="clip0_11_260">
<rect width="15.9091" height="15.9091" fill="white" transform="translate(4.54541 5.51825)"/>
</clipPath>
</defs>
</svg>
