<svg width="20" height="20" viewBox="0 0 20 20" fill="none" xmlns="http://www.w3.org/2000/svg">
<path d="M17 8.36364C17 14.0909 10 19 10 19C10 19 3 14.0909 3 8.36364C3 6.41068 3.7375 4.53771 5.05025 3.15676C6.36301 1.77581 8.14348 1 10 1C11.8565 1 13.637 1.77581 14.9497 3.15676C16.2625 4.53771 17 6.41068 17 8.36364Z" stroke="#C5C5C5" stroke-width="2" stroke-linecap="round" stroke-linejoin="round"/>
<path d="M10 10.8333C11.3807 10.8333 12.5 9.71404 12.5 8.33333C12.5 6.95262 11.3807 5.83333 10 5.83333C8.61929 5.83333 7.5 6.95262 7.5 8.33333C7.5 9.71404 8.61929 10.8333 10 10.8333Z" stroke="#C5C5C5" stroke-width="2" stroke-linecap="round" stroke-linejoin="round"/>
</svg>
