<svg width="17" height="21" viewBox="0 0 17 21" fill="none" xmlns="http://www.w3.org/2000/svg">
<path d="M11.7333 9.22222C11.7333 8.09063 11.2838 7.00538 10.4836 6.20523C9.68348 5.40507 8.59824 4.95555 7.46665 4.95555C6.33506 4.95555 5.24982 5.40507 4.44966 6.20523C3.64951 7.00538 3.19998 8.09063 3.19998 9.22222C3.19998 14.2 1.06665 15.6222 1.06665 15.6222H13.8666C13.8666 15.6222 11.7333 14.2 11.7333 9.22222Z" stroke="white" stroke-width="2" stroke-linecap="round" stroke-linejoin="round"/>
<path d="M8.69653 18.4667C8.57151 18.6822 8.39206 18.8611 8.17616 18.9854C7.96025 19.1098 7.71546 19.1753 7.46631 19.1753C7.21715 19.1753 6.97236 19.1098 6.75646 18.9854C6.54055 18.8611 6.3611 18.6822 6.23608 18.4667" stroke="white" stroke-width="2" stroke-linecap="round" stroke-linejoin="round"/>
<path d="M17 5.5C17 8.53757 14.5376 11 11.5 11C8.46243 11 6 8.53757 6 5.5C6 2.46243 8.46243 0 11.5 0C14.5376 0 17 2.46243 17 5.5Z" fill="#FFAB41"/>
<path d="M11.379 3.1H12.079V8H11.274V3.961L10.287 4.241L10.091 3.555L11.379 3.1Z" fill="black"/>
</svg>
