<svg width="19" height="21" viewBox="0 0 19 21" fill="none" xmlns="http://www.w3.org/2000/svg">
<path d="M18.2275 17.1553C17.776 16.0327 17.1208 15.0129 16.2983 14.1528C15.4783 13.2903 14.507 12.6026 13.4379 12.1277C13.4284 12.1227 13.4188 12.1202 13.4092 12.1151C14.9004 10.9845 15.8698 9.14279 15.8698 7.0649C15.8698 3.62268 13.2129 0.83374 9.93372 0.83374C6.65448 0.83374 3.99759 3.62268 3.99759 7.0649C3.99759 9.14279 4.96699 10.9845 6.45821 12.1177C6.44863 12.1227 6.43906 12.1252 6.42948 12.1302C5.35715 12.6051 4.39492 13.286 3.56913 14.1553C2.74743 15.0161 2.09229 16.0357 1.63989 17.1579C1.19545 18.2565 0.955754 19.4344 0.933776 20.6277C0.933137 20.6545 0.937618 20.6812 0.946954 20.7062C0.956291 20.7311 0.970295 20.7539 0.98814 20.7731C1.00599 20.7923 1.02731 20.8076 1.05086 20.818C1.07441 20.8284 1.09971 20.8337 1.12526 20.8337H2.56142C2.66674 20.8337 2.75052 20.7458 2.75291 20.6378C2.80078 18.6981 3.5428 16.8815 4.85449 15.5046C6.21167 14.08 8.01405 13.2961 9.93372 13.2961C11.8534 13.2961 13.6558 14.08 15.0129 15.5046C16.3246 16.8815 17.0666 18.6981 17.1145 20.6378C17.1169 20.7483 17.2007 20.8337 17.306 20.8337H18.7422C18.7677 20.8337 18.793 20.8284 18.8166 20.818C18.8401 20.8076 18.8614 20.7923 18.8793 20.7731C18.8971 20.7539 18.9111 20.7311 18.9205 20.7062C18.9298 20.6812 18.9343 20.6545 18.9337 20.6277C18.9097 19.4267 18.6728 18.2584 18.2275 17.1553ZM9.93372 11.3865C8.83505 11.3865 7.80102 10.9368 7.0231 10.1202C6.24518 9.30359 5.81672 8.21816 5.81672 7.0649C5.81672 5.91163 6.24518 4.8262 7.0231 4.00962C7.80102 3.19304 8.83505 2.74329 9.93372 2.74329C11.0324 2.74329 12.0664 3.19304 12.8443 4.00962C13.6223 4.8262 14.0507 5.91163 14.0507 7.0649C14.0507 8.21816 13.6223 9.30359 12.8443 10.1202C12.0664 10.9368 11.0324 11.3865 9.93372 11.3865Z" fill="#C5C5C5"/>
</svg>
