<svg width="21" height="21" viewBox="0 0 21 21" fill="none" xmlns="http://www.w3.org/2000/svg">
<path d="M11.1337 14.5337H12.5337M17.4337 11.7337V10.3337C17.4337 9.96243 17.2862 9.60634 17.0237 9.34379C16.7611 9.08124 16.405 8.93374 16.0337 8.93374H2.03371C1.66241 8.93374 1.30631 9.08124 1.04376 9.34379C0.781212 9.60634 0.633713 9.96243 0.633713 10.3337V18.7337C0.633713 19.105 0.781212 19.4611 1.04376 19.7237C1.30631 19.9862 1.66241 20.1337 2.03371 20.1337H16.0337C16.405 20.1337 16.7611 19.9862 17.0237 19.7237C17.2862 19.4611 17.4337 19.105 17.4337 18.7337V17.3337V11.7337ZM17.4337 11.7337H11.8337C11.0911 11.7337 10.3789 12.0287 9.85381 12.5538C9.32871 13.0789 9.03371 13.7911 9.03371 14.5337C9.03371 15.2763 9.32871 15.9885 9.85381 16.5136C10.3789 17.0387 11.0911 17.3337 11.8337 17.3337H17.4337V11.7337ZM17.4337 11.7337C18.1763 11.7337 18.8885 12.0287 19.4136 12.5538C19.9387 13.0789 20.2337 13.7911 20.2337 14.5337C20.2337 15.2763 19.9387 15.9885 19.4136 16.5136C18.8885 17.0387 18.1763 17.3337 17.4337 17.3337V11.7337ZM4.83371 8.93374V4.73374C4.83371 3.61983 5.27621 2.55154 6.06386 1.76389C6.85152 0.976236 7.9198 0.533737 9.03371 0.533737C10.1476 0.533737 11.2159 0.976236 12.0036 1.76389C12.7912 2.55154 13.2337 3.61983 13.2337 4.73374V8.93374H4.83371ZM16.7337 14.5337H18.1337H16.7337ZM13.9337 14.5337H15.3337H13.9337Z" stroke="#C5C5C5"/>
</svg>
