<svg width="30" height="30" viewBox="0 0 30 30" fill="none" xmlns="http://www.w3.org/2000/svg">
<path d="M29.2031 22.0781C29.1562 10.6406 19.4531 0.984375 8.01562 0.9375L1.07812 29.0625L29.2031 22.0781Z" fill="#F6DA77"/>
<path d="M25.5469 22.9688L26.5312 22.7812C26.0625 13.875 19.6875 4.54688 7.3125 3.60938L7.17188 4.54688C16.6406 5.76562 24.375 13.4531 25.5469 22.9688Z" fill="#860D16"/>
<path d="M26.4844 22.7812L29.1563 22.125C29.2031 10.6875 19.4531 0.9375 7.92187 0.9375L7.26562 3.60938C18.2813 4.64063 25.4531 11.8594 26.4844 22.7812Z" fill="#C98E52"/>
<path d="M6.32813 19.5469C5.53125 19.5469 4.82813 19.2656 4.26563 18.7031C4.03125 18.4688 4.03125 18.0938 4.26563 17.9063C4.5 17.6719 4.875 17.6719 5.0625 17.9063C5.71875 18.5625 6.89063 18.5625 7.54688 17.9063C7.875 17.5781 8.0625 17.1562 8.0625 16.6875C8.0625 16.2187 7.875 15.7969 7.54688 15.4688C7.3125 15.2344 7.3125 14.8594 7.54688 14.6719C7.78125 14.4375 8.15625 14.4375 8.34375 14.6719C8.90625 15.2344 9.1875 15.9375 9.1875 16.7344C9.1875 17.5313 8.90625 18.2344 8.34375 18.7969C7.82813 19.2187 7.07813 19.5469 6.32813 19.5469Z" fill="#83BF4F"/>
<path d="M18.0938 10.2656V10.5C18.0469 10.6406 18 10.7344 17.8594 10.8281C17.7188 10.9219 17.5781 10.9219 17.4844 10.875C17.1094 10.7812 16.7344 10.875 16.4063 11.0625C16.0781 11.25 15.8437 11.5781 15.75 11.9531C15.5625 12.7031 16.0781 13.5 16.8281 13.6875C17.1094 13.7344 17.2969 14.0625 17.2031 14.2969C17.1563 14.5781 16.875 14.7656 16.5938 14.6719C15.6563 14.4375 14.9531 13.7344 14.7188 12.7969C14.625 12.4219 14.625 12.0469 14.7188 11.7187C14.8594 11.0625 15.2812 10.5469 15.8438 10.1719C16.4063 9.79687 17.0625 9.70312 17.7188 9.84375C17.8594 9.9375 18.0469 10.0781 18.0938 10.2656Z" fill="#83BF4F"/>
<path d="M20.5781 23.8594H20.3437C20.2031 23.8125 20.1094 23.7656 20.0625 23.625C20.0156 23.5312 19.9687 23.3906 20.0156 23.25C20.1094 22.9219 20.0625 22.5469 19.875 22.2187C19.6875 21.8906 19.4062 21.6562 19.0312 21.5625C18.3281 21.375 17.5312 21.8437 17.3437 22.5C17.2969 22.7344 16.9687 22.9219 16.7344 22.8281C16.4531 22.7344 16.3125 22.5 16.4062 22.2187C16.6406 21.375 17.3437 20.6719 18.2344 20.5312C18.5625 20.4844 18.9375 20.4844 19.2656 20.5781C19.875 20.7187 20.3906 21.1406 20.6719 21.6562C21 22.2187 21.0469 22.8281 20.9062 23.4375C20.9062 23.6719 20.7656 23.8125 20.5781 23.8594Z" fill="#83BF4F"/>
<path d="M17.3906 16.9688C18.0469 18.8906 17.0156 20.9531 15.0469 21.6094C13.0781 22.2656 10.9688 21.2344 10.3594 19.3125C9.70314 17.3906 10.7344 15.3281 12.7031 14.6719C14.625 14.0156 16.7344 15.0469 17.3906 16.9688Z" fill="#B21725"/>
<path d="M23.25 17.3437C23.625 18.5156 23.0156 19.7344 21.8437 20.1562C20.6719 20.5312 19.4062 19.9219 19.0312 18.75C18.6562 17.5781 19.2656 16.3594 20.4375 15.9375C21.5625 15.5625 22.8281 16.1719 23.25 17.3437Z" fill="#B21725"/>
<path d="M13.5938 8.90625C14.1094 10.4531 13.2656 12.1875 11.6719 12.7031C10.0781 13.2187 8.34376 12.375 7.82814 10.8281C7.31251 9.28125 8.15626 7.54687 9.75001 7.03125C11.3438 6.51562 13.0781 7.35937 13.5938 8.90625Z" fill="#B21725"/>
<path d="M16.125 25.3125L11.5781 26.4375C11.1563 25.2187 12 23.7656 13.2188 23.4375C14.7188 23.0625 15.7031 24.1406 16.125 25.3125Z" fill="#B21725"/>
<path d="M9.18751 22.0313C9.75001 23.625 8.85938 25.4063 7.21876 25.9219C5.57813 26.4844 3.79688 25.5938 3.23438 23.9531C2.67188 22.3594 3.56251 20.5781 5.20313 20.0625C6.84376 19.5469 8.62501 20.4375 9.18751 22.0313Z" fill="#B21725"/>
<path d="M7.26562 3.60938C9.75 3.65625 12.2344 4.125 14.5781 5.0625C16.9219 5.95313 19.125 7.35938 20.9062 9.1875C22.6875 10.9688 24.0938 13.1719 25.0312 15.5156C25.9688 17.8594 26.4375 20.3438 26.4844 22.8281C26.0625 20.3906 25.4062 18 24.375 15.7969C23.3438 13.5938 21.9844 11.5312 20.25 9.84375C18.5625 8.10938 16.5 6.75 14.2969 5.76563C12.0938 4.6875 9.70312 4.03125 7.26562 3.60938Z" fill="#E0A763"/>
<path d="M7.87219 6.29812L8.80032 5.37L9.72844 6.29812L8.80032 7.22625L7.87219 6.29812Z" fill="#FFAB41"/>
<path d="M13.9312 8.92687L14.8594 7.99875L15.7875 8.92687L14.8594 9.855L13.9312 8.92687Z" fill="#FFAB41"/>
<path d="M6.05063 12.3975L6.97875 11.4694L7.90688 12.3975L6.97875 13.3256L6.05063 12.3975Z" fill="#FFAB41"/>
<path d="M9.2569 15.0633L10.185 14.1351L11.1131 15.0633L10.185 15.9914L9.2569 15.0633Z" fill="#FFAB41"/>
<path d="M17.5992 15.1828L18.5273 14.2547L19.4555 15.1828L18.5273 16.1109L17.5992 15.1828Z" fill="#FFAB41"/>
<path d="M22.98 21.8161L23.9081 20.888L24.8363 21.8161L23.9081 22.7442L22.98 21.8161Z" fill="#FFAB41"/>
<path d="M9.19547 20.9306L10.1236 20.0025L11.0517 20.9306L10.1236 21.8588L9.19547 20.9306Z" fill="#FFAB41"/>
<path d="M9.85968 24.3295L10.7878 23.4014L11.7159 24.3295L10.7878 25.2576L9.85968 24.3295Z" fill="#FFAB41"/>
<path d="M2.03345 27.3005L2.96157 26.3723L3.8897 27.3005L2.96157 28.2286L2.03345 27.3005Z" fill="#FFAB41"/>
<path d="M6.54846 8.1225L7.24456 7.42641L7.94065 8.1225L7.24456 8.81859L6.54846 8.1225Z" fill="#FFAB41"/>
<path d="M12.4463 13.0748L13.1424 12.3788L13.8384 13.0748L13.1424 13.7709L12.4463 13.0748Z" fill="#FFAB41"/>
<path d="M18.7852 13.1039L19.4813 12.4078L20.1773 13.1039L19.4813 13.8L18.7852 13.1039Z" fill="#FFAB41"/>
<path d="M6.29813 16.9519L6.99422 16.2558L7.69031 16.9519L6.99422 17.648L6.29813 16.9519Z" fill="#FFAB41"/>
<path d="M3.45001 19.7344L4.14611 19.0383L4.8422 19.7339L4.14611 20.43L3.45001 19.7344Z" fill="#FFAB41"/>
<path d="M2.35782 25.5398L3.05391 24.8438L3.75001 25.5398L3.05391 26.2359L2.35782 25.5398Z" fill="#FFAB41"/>
<path d="M8.37939 25.9153L9.07549 25.2192L9.77158 25.9158L9.07549 26.6114L8.37939 25.9153Z" fill="#FFAB41"/>
<path d="M14.4272 22.6622L15.1233 21.9661L15.8194 22.6622L15.1233 23.3583L14.4272 22.6622Z" fill="#FFAB41"/>
<path d="M17.3634 23.8575L18.0595 23.1614L18.7556 23.8575L18.0595 24.5531L17.3634 23.8575Z" fill="#FFAB41"/>
<path d="M21.27 21.1734L21.9661 20.4778L22.6622 21.1739L21.9661 21.87L21.27 21.1734Z" fill="#FFAB41"/>
</svg>
