<svg width="28" height="28" viewBox="0 0 28 28" fill="none" xmlns="http://www.w3.org/2000/svg">
<path d="M14 0.875C21.2487 0.875 27.125 6.75126 27.125 14C27.125 21.2487 21.2487 27.125 14 27.125C6.75126 27.125 0.875 21.2487 0.875 14C0.875 6.75126 6.75126 0.875 14 0.875Z" fill="#3E4347"/>
<path d="M2.75625 20.125L1.575 21.3062C0.656253 22.225 0.656253 23.7125 1.575 24.5875L3.4125 26.425C4.33125 27.3437 5.81875 27.3437 6.69375 26.425L7.875 25.2437L6.51875 23.8875L5.3375 25.0687C5.20625 25.2 4.94375 25.2 4.76875 25.0687L2.93125 23.2312C2.8 23.1 2.8 22.8375 2.93125 22.6625L4.1125 21.4812L2.75625 20.125Z" fill="#3E4347"/>
<path d="M25.2437 7.875L26.425 6.69375C27.3437 5.775 27.3437 4.2875 26.425 3.4125L24.5875 1.575C23.6687 0.656251 22.1812 0.656251 21.3062 1.575L20.125 2.75625L21.4812 4.1125L22.6625 2.93125C22.7937 2.8 23.0562 2.8 23.2312 2.93125L25.0687 4.76875C25.2 4.9 25.2 5.1625 25.0687 5.3375L23.8875 6.51875L25.2437 7.875Z" fill="#3E4347"/>
<path d="M14 3.7625C19.654 3.7625 24.2375 8.34599 24.2375 14C24.2375 19.654 19.654 24.2375 14 24.2375C8.34598 24.2375 3.7625 19.654 3.7625 14C3.7625 8.34599 8.34598 3.7625 14 3.7625Z" fill="#F2B200"/>
<path d="M17.325 23.0125C15.1375 24.15 11.6812 21.9625 12.075 20.125C12.4687 18.2875 16.975 16.975 18.2 14.3938C19.425 11.8125 19.9937 10.9813 22.1812 12.7313C24.325 14.525 25.3312 18.7688 17.325 23.0125Z" fill="#B47D56"/>
<path d="M16.975 21.9625C18.4625 21.9625 16.0562 21.1312 14.6562 19.9062C13.9562 19.2937 14.2625 21.9625 16.975 21.9625Z" fill="#89664C"/>
<path d="M20.1687 19.8187C21.6562 19.8187 19.25 18.9875 17.8062 17.7625C17.15 17.1937 17.4562 19.8187 20.1687 19.8187Z" fill="#89664C"/>
<path d="M22.1375 16.5375C23.625 16.5375 21.2187 15.7062 19.775 14.4812C19.1187 13.9125 19.4687 16.5375 22.1375 16.5375Z" fill="#89664C"/>
<path d="M4.68126 11.375C3.85001 13.475 6.60626 16.0563 8.40001 15.4C10.2375 14.7438 10.8938 10.6313 13.3 9.1C15.7063 7.6125 16.4938 6.95625 14.3938 5.38126C12.25 3.80626 7.78751 3.71875 4.68126 11.375Z" fill="#B47D56"/>
<path d="M5.86249 10.8063C5.64374 9.5375 6.82499 11.4625 8.31249 12.4688C9.01249 12.95 6.25624 13.125 5.86249 10.8063Z" fill="#89664C"/>
<path d="M7.34997 8.1375C7.13122 6.86875 8.31247 8.79376 9.79997 9.80001C10.5 10.2813 7.74372 10.4563 7.34997 8.1375Z" fill="#89664C"/>
<path d="M9.97497 6.16875C9.75622 4.9 10.9375 6.825 12.425 7.83125C13.125 8.31251 10.4125 8.53125 9.97497 6.16875Z" fill="#89664C"/>
<path d="M11.2 22.3125C10.2375 23.2313 10.2375 23.2313 7.43751 20.3C5.90626 18.6813 5.11876 16.975 5.64376 16.4938C6.60626 15.575 6.60626 15.575 9.36251 18.5063C10.9375 20.0813 11.725 21.7875 11.2 22.3125Z" fill="#699635"/>
<path d="M22.5313 10.4125C21.7438 11.4625 21.7438 11.4625 18.55 9.1875C16.7563 7.91875 15.7063 6.43125 16.1 5.8625C16.8875 4.8125 16.8875 4.8125 20.0813 7.0875C21.875 8.35625 22.9688 9.84375 22.5313 10.4125Z" fill="#699635"/>
<path d="M16.8875 13.475C17.4563 14.7875 17.4563 14.7875 13.6063 16.5813C11.4625 17.5875 9.49375 17.8063 9.1875 17.1063C8.61875 15.7938 8.61875 15.7938 12.4688 14C14.5688 12.9938 16.5375 12.775 16.8875 13.475Z" fill="#699635"/>
<path d="M19.0313 11.4625C19.1188 12.425 18.3313 11.9438 16.8875 11.9875C15.4438 12.075 15.8375 10.9375 15.925 10.0188C15.9688 9.1 16.5375 9.84375 18.6375 9.8C19.425 9.75625 18.9 10.5 19.0313 11.4625Z" fill="#ED4C5C"/>
<path d="M13.0812 13.0812C11.9875 13.475 12.3375 12.7312 11.7687 11.6812C11.2 10.6312 12.6875 10.5875 13.7812 10.325C14.875 10.0625 14.175 10.7187 14.9187 12.25C15.225 12.8187 14.175 12.6875 13.0812 13.0812Z" fill="#FFCE31"/>
<path d="M10.7188 19.7313C9.625 20.125 9.975 19.3813 9.40625 18.3313C8.8375 17.2813 10.325 17.2375 11.4188 16.975C12.5125 16.7125 11.8125 17.3688 12.5563 18.9C12.8625 19.4688 11.8125 19.3375 10.7188 19.7313Z" fill="#ED4C5C"/>
<path d="M6.125 16.5375C5.03125 16.9312 5.38125 16.1875 4.8125 15.1375C4.24375 14.0875 5.73125 14.0437 6.825 13.7812C7.91875 13.5187 7.21875 14.175 7.9625 15.7062C8.26875 16.3187 7.21875 16.1875 6.125 16.5375Z" fill="#FFCE31"/>
</svg>
