<svg width="14" height="20" viewBox="0 0 14 20" fill="none" xmlns="http://www.w3.org/2000/svg">
<path d="M10.75 1.25C11.0815 1.25 11.3995 1.3817 11.6339 1.61612C11.8683 1.85054 12 2.16848 12 2.5V17.5C12 17.8315 11.8683 18.1495 11.6339 18.3839C11.3995 18.6183 11.0815 18.75 10.75 18.75H3.25C2.91848 18.75 2.60054 18.6183 2.36612 18.3839C2.1317 18.1495 2 17.8315 2 17.5V2.5C2 2.16848 2.1317 1.85054 2.36612 1.61612C2.60054 1.3817 2.91848 1.25 3.25 1.25H10.75ZM3.25 0C2.58696 0 1.95107 0.263392 1.48223 0.732233C1.01339 1.20107 0.75 1.83696 0.75 2.5V17.5C0.75 18.163 1.01339 18.7989 1.48223 19.2678C1.95107 19.7366 2.58696 20 3.25 20H10.75C11.413 20 12.0489 19.7366 12.5178 19.2678C12.9866 18.7989 13.25 18.163 13.25 17.5V2.5C13.25 1.83696 12.9866 1.20107 12.5178 0.732233C12.0489 0.263392 11.413 0 10.75 0L3.25 0Z" fill="#C5C5C5"/>
</svg>
