<svg width="16" height="20" viewBox="0 0 16 20" fill="none" xmlns="http://www.w3.org/2000/svg">
<path d="M4.14901 10.07C4.28823 10.0175 4.43794 9.99026 4.5893 9.98978C4.74065 9.9893 4.89059 10.0156 5.03023 10.0672C5.16987 10.1188 5.29639 10.1945 5.4023 10.29C5.50822 10.3855 5.59138 10.4988 5.64688 10.6231C5.70237 10.7475 5.72907 10.8804 5.7254 11.014C5.72172 11.1477 5.68775 11.2793 5.62549 11.4011C5.56322 11.523 5.47393 11.6325 5.3629 11.7234C5.25186 11.8142 5.12133 11.8845 4.97901 11.93C4.2221 12.1934 3.57246 12.6519 3.11463 13.2458C2.6568 13.8397 2.41198 14.5415 2.41201 15.26V17C2.41201 17.2652 2.53131 17.5196 2.74366 17.7071C2.95602 17.8946 3.24403 18 3.54435 18H12.603C12.9033 18 13.1914 17.8946 13.4037 17.7071C13.6161 17.5196 13.7354 17.2652 13.7354 17V15.353C13.7355 14.6115 13.4804 13.8874 13.004 13.2768C12.5276 12.6662 11.8523 12.1979 11.0676 11.934C10.9244 11.8901 10.7926 11.8213 10.6801 11.7316C10.5676 11.6419 10.4766 11.5332 10.4126 11.4119C10.3485 11.2905 10.3127 11.1591 10.3072 11.0253C10.3017 10.8916 10.3267 10.7582 10.3807 10.6331C10.4347 10.508 10.5166 10.3938 10.6215 10.2972C10.7264 10.2006 10.8522 10.1235 10.9914 10.0706C11.1307 10.0177 11.2805 9.99008 11.4321 9.98929C11.5837 9.98849 11.7339 10.0146 11.8738 10.066C13.0872 10.4742 14.1316 11.1983 14.8684 12.1425C15.6053 13.0867 15.9999 14.2063 16 15.353V17C16 17.7956 15.6421 18.5587 15.0051 19.1213C14.368 19.6839 13.504 20 12.603 20H3.54435C2.6434 20 1.77936 19.6839 1.1423 19.1213C0.505237 18.5587 0.147339 17.7956 0.147339 17L0.147339 15.26C0.147495 14.1402 0.529249 13.0463 1.24294 12.1206C1.95664 11.195 2.96923 10.4805 4.14901 10.07ZM8.07369 0C9.27494 0 10.427 0.421427 11.2764 1.17157C12.1258 1.92172 12.603 2.93913 12.603 4V6C12.603 7.06087 12.1258 8.07828 11.2764 8.82843C10.427 9.57857 9.27494 10 8.07369 10C6.87243 10 5.72038 9.57857 4.87096 8.82843C4.02154 8.07828 3.54435 7.06087 3.54435 6V4C3.54435 2.93913 4.02154 1.92172 4.87096 1.17157C5.72038 0.421427 6.87243 0 8.07369 0ZM8.07369 2C7.47306 2 6.89703 2.21071 6.47232 2.58579C6.04762 2.96086 5.80902 3.46957 5.80902 4V6C5.80902 6.53043 6.04762 7.03914 6.47232 7.41421C6.89703 7.78929 7.47306 8 8.07369 8C8.67432 8 9.25034 7.78929 9.67505 7.41421C10.0998 7.03914 10.3384 6.53043 10.3384 6V4C10.3384 3.46957 10.0998 2.96086 9.67505 2.58579C9.25034 2.21071 8.67432 2 8.07369 2Z" fill="#181725"/>
</svg>
