<svg width="30" height="30" viewBox="0 0 30 30" fill="none" xmlns="http://www.w3.org/2000/svg">
<g clip-path="url(#clip0_11_912)">
<path d="M22.3209 20.3578C22.3209 22.8155 17.325 24.81 11.1609 24.81C4.99781 24.81 0 22.8155 0 20.3578C0 17.8969 4.99781 15.9037 11.1609 15.9037C17.325 15.9037 22.3209 17.8969 22.3209 20.3578Z" fill="#A6A8AB"/>
<path d="M18.6666 25.4831C24.8301 25.4831 29.8266 23.4898 29.8266 21.0309C29.8266 18.5721 24.8301 16.5788 18.6666 16.5788C12.5031 16.5788 7.50656 18.5721 7.50656 21.0309C7.50656 23.4898 12.5031 25.4831 18.6666 25.4831Z" fill="#A6A8AB"/>
<path d="M15.3173 23.9578C10.597 23.9578 6.36421 22.9284 3.49546 21.3C3.46687 21.5198 3.44952 21.742 3.44952 21.9675C3.44952 26.2191 8.68031 29.6658 15.1322 29.6658C21.585 29.6658 26.8158 26.2186 26.8158 21.9675C26.8158 21.8053 26.8064 21.6459 26.79 21.487C23.9348 23.0063 19.8506 23.9578 15.3164 23.9578" fill="#D0D2D3"/>
<path d="M9.31266 23.3695C7.06031 22.9073 5.07047 22.1958 3.49641 21.3014C3.46781 21.5213 3.45047 21.7434 3.45047 21.9689C3.45047 26.2205 8.68125 29.6672 15.1331 29.6672C15.6417 29.6672 16.1414 29.6428 16.6341 29.6016C12.7163 28.5853 9.83438 26.2191 9.31266 23.3695Z" fill="#B6B6B7"/>
<path d="M28.1813 18.2522C28.1813 21.1261 22.3388 23.4553 15.1359 23.4553C7.93078 23.4553 2.08969 21.1228 2.08969 18.2522C2.08969 15.3773 7.93078 13.0444 15.1359 13.0444C22.3388 13.0444 28.1813 15.3755 28.1813 18.2522Z" fill="#D0D2D3"/>
<path d="M15.0422 22.5042C21.2059 22.5042 26.2026 20.5103 26.2026 18.0506C26.2026 15.591 21.2059 13.597 15.0422 13.597C8.87843 13.597 3.88171 15.591 3.88171 18.0506C3.88171 20.5103 8.87843 22.5042 15.0422 22.5042Z" fill="#A6A8AB"/>
<path d="M6.44999 14.5073C5.64187 15.2212 4.79484 15.8826 3.95671 16.5605C3.21093 17.1614 4.16343 18.2658 4.94531 17.8397C5.67468 17.4445 6.39843 17.0569 7.17046 16.7503C6.86343 16.35 6.55499 15.9511 6.24843 15.5508C6.0461 15.8788 5.81936 16.191 5.57015 16.485C5.03343 17.1609 5.71734 18.3042 6.55874 17.7651C7.11562 17.4098 7.66359 17.0545 8.24437 16.7395L7.12921 15.6253C6.92999 15.9581 6.77437 16.2961 6.61546 16.6509C6.31781 17.3091 6.99328 18.2976 7.73062 17.7661C8.32968 17.3358 8.8964 16.897 9.43499 16.3917C10.1587 15.7172 9.24374 14.7511 8.44734 15.1116C8.40234 15.1603 8.36015 15.2091 8.31703 15.2583C8.21952 15.6309 8.12156 16.0027 8.02499 16.3734C8.34719 16.1696 8.70254 16.0236 9.07499 15.9422C9.87515 15.7106 9.83203 14.6222 9.07499 14.3705C9.0014 14.3456 8.92874 14.3208 8.85562 14.2969V15.8695C9.21937 15.7322 9.57468 15.6516 9.95624 15.5766C9.74577 15.0792 9.53718 14.5814 9.32718 14.0855C8.00484 14.7389 3.81421 15.7851 5.29687 18.0605C5.53031 17.6494 5.76562 17.242 6.00093 16.8323C5.85328 16.8178 5.70609 16.8033 5.55843 16.7878C4.64999 16.5956 4.13812 17.7694 4.92984 18.2794C5.2064 18.4776 5.49937 18.6497 5.80828 18.7931C5.94609 18.2859 6.08296 17.7797 6.21984 17.2725C5.87718 17.2945 5.5364 17.3184 5.19468 17.3461C4.13906 17.4262 4.15078 18.8808 5.19468 18.9769C6.27234 19.0748 7.67437 19.3678 8.68077 18.8109C9.00093 18.6319 9.18046 18.4744 9.41952 18.2109C9.58781 18.0248 9.76499 17.8491 9.94499 17.6747C10.7625 16.8858 9.72656 17.9062 9.72984 17.2814L10.9575 16.5778C10.8342 16.5047 10.7123 16.4301 10.59 16.3575C10.4522 16.8637 10.3162 17.37 10.1775 17.8772C10.4569 17.9873 10.7344 18.097 11.0123 18.2048L11.4248 16.6852C10.9863 16.6341 10.5434 16.6341 10.1048 16.6852C9.48281 16.755 9.09843 17.3227 9.40031 17.9128C9.93609 18.9577 11.1558 19.3622 12.2362 19.6055C13.2605 19.8398 13.6941 18.2672 12.6698 18.0333C12.0314 17.8884 11.1412 17.7337 10.8126 17.0911C10.5764 17.4984 10.3439 17.9076 10.1072 18.3173C10.5458 18.2676 10.9886 18.2676 11.4272 18.3173C12.2845 18.413 12.4692 17.1942 11.8387 16.7972C11.2912 16.4541 10.8192 16.3177 10.1794 16.2464C9.33515 16.1517 9.12234 17.3775 9.76874 17.7647L10.1353 17.9855C10.6711 18.308 11.3583 17.8931 11.362 17.2809C11.3714 16.0327 10.4766 15.3553 9.3539 16.0636C8.8889 16.3584 8.50312 16.7953 8.13937 17.1998C7.57312 17.8275 5.94656 17.4131 5.19703 17.3456V18.9764C5.53859 18.9505 5.88032 18.9268 6.22218 18.9052C6.98015 18.8541 7.40249 17.7844 6.63468 17.385C6.32617 17.2418 6.03189 17.0698 5.75578 16.8712C5.54531 17.3691 5.33578 17.865 5.12859 18.3623C5.41633 18.4247 5.70939 18.4594 6.00374 18.4659C6.60281 18.4791 7.0439 17.7534 6.70687 17.2373C6.50202 16.9214 9.76265 15.6872 10.1541 15.495C11.0287 15.0642 10.3847 13.8342 9.52452 14.0044C9.14531 14.0789 8.78999 14.1614 8.42484 14.2973C7.67296 14.5795 7.62843 15.6042 8.42484 15.87C8.49937 15.8944 8.57156 15.9192 8.64515 15.9422V14.3705C8.1164 14.5261 7.66593 14.6653 7.20374 14.9648C6.86812 15.1842 6.6314 15.7172 6.91171 16.0809C7.58671 16.9598 8.29218 16.9664 9.27421 16.5201C8.94421 16.0945 8.61421 15.667 8.28562 15.24C7.85208 15.6422 7.39299 16.0159 6.91124 16.3589L8.02734 17.475C8.18718 17.1206 8.34046 16.7817 8.54109 16.4489C8.97281 15.7294 8.12859 14.9512 7.42406 15.3328C6.84328 15.6487 6.29578 16.005 5.73937 16.3589L6.72609 17.6391C7.05328 17.2256 7.37109 16.8145 7.66124 16.3744C8.03343 15.8095 7.40952 14.9095 6.73921 15.1767C5.83546 15.5376 4.97999 15.968 4.12546 16.4301C4.45453 16.8586 4.78499 17.2866 5.11499 17.7131C5.95171 17.0372 6.79874 16.3734 7.6064 15.6605C8.39624 14.9639 7.23796 13.8164 6.45234 14.5083" fill="#00A551"/>
<path d="M8.64936 18.8859C9.14718 19.4362 9.75186 19.643 10.4737 19.755C10.5459 19.2211 10.6181 18.6867 10.6912 18.1528C10.5367 18.147 10.3854 18.107 10.2483 18.0356C10.1747 18.5705 10.1039 19.1044 10.0317 19.6397C11.0339 19.6402 12.9009 19.7522 13.2131 18.4369C13.5867 16.8642 12.4167 15.5822 11.055 15.0319L10.837 16.6336H10.9842C11.9447 16.6336 12.0403 15.3347 11.2008 15.0319C10.7137 14.8556 10.2464 14.6902 9.78514 14.4548C9.64733 14.9602 9.51139 15.4673 9.37264 15.975C9.82921 15.9984 11.6709 16.4639 11.5191 17.1394C11.4314 17.5256 11.5814 17.8364 11.8926 18.0614C12.9103 18.7912 13.9144 19.6298 15.1659 19.9027C16.0922 20.1052 16.5562 18.9366 15.7945 18.412C15.6451 18.3101 15.4804 18.2327 15.3066 18.1828V19.755L15.8198 19.6083C16.8281 19.3209 16.3978 17.7455 15.3853 18.0361C15.2151 18.0862 15.0436 18.1359 14.8716 18.1828C14.0812 18.4092 14.1098 19.5159 14.8716 19.755C14.9053 19.777 14.9386 19.7991 14.9705 19.8211C15.18 19.3228 15.3905 18.8269 15.5995 18.3295C14.5003 18.0881 13.6101 17.2941 12.7172 16.6533L13.0912 17.5748C13.5469 15.548 11.0316 14.4319 9.37218 14.3428C8.57202 14.3006 8.24296 15.4978 8.96061 15.8634C9.54655 16.1602 10.1522 16.3814 10.7686 16.6045C10.8403 16.0702 10.912 15.5367 10.9856 15.0014H10.8384C9.85546 15.0014 9.81046 16.2773 10.6219 16.6045C10.9673 16.7442 12.1851 17.7778 11.3953 17.9705C10.972 18.0745 10.4658 18.0103 10.0331 18.0075C9.04358 18.007 9.01264 19.2778 9.81561 19.6083C10.0987 19.7264 10.3898 19.755 10.6931 19.7845C11.6044 19.8759 11.8158 18.3244 10.9097 18.1828C10.4733 18.1144 10.1264 18.0891 9.80343 17.7342C9.09655 16.9523 7.94577 18.1087 8.65124 18.8859" fill="#00A551"/>
<path d="M24.4594 18.2728C23.7591 18.5747 23.0569 18.8672 22.3669 19.192C21.6413 19.5352 21.9839 20.7741 22.7784 20.7127C23.5622 20.6503 24.3145 20.4802 25.0875 20.3466L24.2944 18.9858C23.3114 19.8525 21.4144 19.6645 20.1867 19.6664C19.2839 19.6673 19.0486 21.082 19.9687 21.2686C20.8111 21.4378 21.5667 21.4228 22.4095 21.2686C23.1872 21.1247 23.197 19.8295 22.4095 19.6959C20.8575 19.4311 19.3364 19.5759 17.7736 19.6547C16.0973 19.7419 14.4164 19.4494 12.7402 19.4156C11.6728 19.3955 11.7131 20.9489 12.7402 21.0464C13.6706 21.135 14.5448 21.1598 15.4659 21.0178C16.2455 20.8987 16.253 19.5558 15.4659 19.4456C13.7489 19.2028 11.0545 18.7659 9.65438 20.0728C9.98344 20.0297 10.313 19.9884 10.6434 19.9448C9.83766 19.6031 9.11297 19.1981 8.22375 19.1658C7.65047 19.1447 7.14422 19.8937 7.52016 20.392C7.68656 20.6161 7.85484 20.8378 8.01984 21.0609C8.39297 20.6892 8.76469 20.3184 9.13594 19.9448C7.92422 19.2867 6.89625 18.5339 5.46328 18.5789C4.67109 18.6047 4.32469 19.6889 5.05172 20.0986C7.72781 21.6103 10.9219 22.4217 13.9955 22.3861C15.0502 22.373 15.0436 20.7942 13.9955 20.7553C13.4362 20.7323 12.8803 20.692 12.3206 20.6709C11.4113 20.6353 11.1961 22.0973 12.105 22.2731C14.5744 22.7512 17.0114 22.5562 19.4817 22.1902C20.4122 22.0514 20.1581 20.587 19.2656 20.587H18.5948V22.2178C19.6355 22.215 20.8139 22.2534 21.758 21.7336C22.1147 21.5377 24.0473 19.5956 24.2067 19.6819C24.5995 19.8923 25.0927 19.7822 25.3228 19.3889C25.5197 19.0519 25.732 18.7312 25.9078 18.3834H24.5016C24.7177 18.6319 24.885 18.9117 25.0031 19.2202C25.4297 18.8906 25.8577 18.562 26.2842 18.2325C25.7217 17.5402 25.0763 17.168 24.2522 16.8516C23.8969 16.7156 23.52 16.9434 23.3302 17.2261C23.1853 17.4042 23.0756 17.5983 22.995 17.8125C23.4225 17.7577 23.8486 17.7019 24.2752 17.6466C23.6902 17.1356 23.2692 16.5159 22.605 16.0973C21.9361 15.6778 21.0084 16.5352 21.4889 17.2125C21.6633 17.4591 21.8259 17.6611 22.0355 17.88C22.2994 17.4267 22.5637 16.9716 22.8291 16.5178C22.0425 16.3458 21.3286 16.0983 20.5191 16.0711C20.0016 16.0519 19.5769 16.6078 19.7325 17.1019C19.8216 17.4169 19.9331 17.7244 20.0667 18.0234L20.6372 17.0184C20.4323 17.0944 20.2809 17.1769 20.1112 17.3123C19.8244 17.5416 19.8206 18.0061 19.9828 18.3C20.1113 18.5152 20.2228 18.7387 20.3175 18.9703C20.6241 18.57 20.933 18.1711 21.2381 17.7717C20.3105 17.6114 19.658 16.6092 18.9787 16.0167C18.3183 15.4425 17.6091 15.1748 16.7564 15.0652C15.8189 14.9461 15.6872 16.4203 16.5398 16.6669C17.6606 16.9912 18.773 17.0991 19.9359 17.1145C21 17.13 20.97 15.5625 19.9359 15.4833C18.2747 15.3567 17.9386 16.342 16.9331 17.3958L18.3248 17.9723C18.2592 17.348 19.5328 16.9922 19.9495 16.8473C20.9841 16.4822 21.8217 16.6533 22.7855 17.1708C23.7131 17.6677 24.5358 16.2595 23.6091 15.7598C22.0823 14.9405 20.7984 14.8177 19.1742 15.3909C18.0623 15.7823 16.5473 16.5811 16.6945 17.9695C16.7648 18.6319 17.5514 19.1062 18.0862 18.5456C18.6947 17.9091 18.9131 17.033 19.9364 17.1108V15.4795C18.9192 15.4664 17.9541 15.375 16.9739 15.0914L16.7569 16.6936C18.4453 16.9092 19.0959 19.0467 20.8073 19.3411C21.5405 19.4667 22.0369 18.8184 21.7284 18.1416C21.6346 17.9105 21.5229 17.6872 21.3942 17.4736C21.3506 17.8017 21.3084 18.1312 21.2667 18.4608C21.2011 18.503 21.1383 18.5452 21.075 18.5869C21.4533 18.4491 21.8198 18.0202 21.6436 17.5837C21.508 17.286 21.3963 16.978 21.3094 16.6627C21.0464 17.0058 20.7853 17.3512 20.5219 17.6948C21.1716 17.7183 21.7706 17.9475 22.3959 18.0834C23.1872 18.2569 23.7722 17.3292 23.1895 16.7212C23.0925 16.6106 22.9964 16.4972 22.9003 16.3837C22.5267 16.7559 22.1559 17.1281 21.7833 17.5003C22.3116 17.8308 22.658 18.3877 23.1234 18.795C23.4858 19.1109 24.1688 19.1372 24.4031 18.63C24.4838 18.4172 24.5953 18.2212 24.7392 18.0441C24.4327 18.1706 24.1247 18.2939 23.8181 18.4205C24.3942 18.6403 24.7477 18.9094 25.1316 19.38C25.7489 20.1408 26.7933 19.1737 26.4113 18.3919C26.2941 18.086 26.1242 17.8031 25.9092 17.5561C25.5759 17.0986 24.8058 16.9612 24.503 17.5561C24.3253 17.9034 24.1158 18.225 23.918 18.562C24.2888 18.4631 24.6623 18.367 25.0341 18.2691C24.1219 17.7783 23.3962 17.9686 22.6763 18.6872C22.1728 19.1864 21.8719 19.7166 21.2738 20.1389C20.5181 20.67 19.4766 20.5814 18.6009 20.5833C17.55 20.5852 17.55 22.2141 18.6009 22.2141H19.2712L19.0542 20.6128C16.8881 20.9334 14.7112 21.1134 12.5452 20.6953C12.4716 21.2287 12.3998 21.7636 12.3262 22.2966C12.8859 22.3195 13.4414 22.3598 14.0011 22.3823V20.7516C11.2139 20.7825 8.30813 20.0578 5.87906 18.6872C5.74313 19.1953 5.60531 19.7011 5.46844 20.2069C6.57938 20.1727 7.39125 20.8458 8.31891 21.3511C8.97844 21.7092 9.95625 20.9311 9.43406 20.2345C9.26766 20.0105 9.10078 19.7883 8.9325 19.5642C8.69719 19.9739 8.46375 20.3831 8.22891 20.7914C8.80875 20.8125 9.30562 21.1294 9.82453 21.3497C10.177 21.4992 10.5164 21.4973 10.8122 21.2227C11.6419 20.4492 14.0156 20.8711 15.0403 21.0141V19.4419C14.2725 19.5572 13.5155 19.4841 12.7472 19.4119V21.0427C14.2566 21.0722 15.7552 21.2658 17.2655 21.2934C18.8475 21.3234 20.4038 20.9948 21.9811 21.2648V19.6922C21.4645 19.8211 20.9241 19.8211 20.4075 19.6922L20.1914 21.2934C21.9361 21.2916 24.0638 21.3605 25.4517 20.1342C26.1253 19.5436 25.3889 18.6469 24.6595 18.772C24.0333 18.8775 23.4202 19.0275 22.7845 19.0777C22.9209 19.5848 23.0592 20.0892 23.1966 20.5964C23.8852 20.273 24.5883 19.9786 25.2877 19.6781C26.25 19.2623 25.4175 17.858 24.4645 18.2719" fill="#F6921E"/>
<path d="M14.1562 22.5375C15.1851 22.5891 16.2131 22.5891 17.242 22.5375C18.1111 22.492 18.4116 21.0675 17.4595 20.9348C16.2801 20.7708 15.1162 20.842 13.9322 20.8486C14.0039 21.3839 14.0775 21.9159 14.1492 22.4508C14.9981 22.3266 15.7992 22.2211 16.5881 21.8639C17.5458 21.4289 16.7151 20.0255 15.765 20.4577C15.1322 20.7436 14.3944 20.7811 13.7151 20.8795C12.7875 21.0164 13.0345 22.4883 13.9317 22.4831C14.9578 22.4742 16.0059 22.3669 17.0269 22.5084C17.0981 21.9745 17.1703 21.4411 17.2425 20.9062C16.2146 20.9592 15.1846 20.9592 14.1567 20.9062C13.1044 20.8533 13.11 22.4859 14.1567 22.5394" fill="#A87C4F"/>
<path d="M21.7922 17.7933C20.4619 18.1917 19.132 18.4303 17.7441 18.4931C16.8717 18.5325 16.5787 19.9669 17.527 20.0953C17.7843 20.1333 18.0449 20.143 18.3042 20.1244C19.1695 20.0658 19.4817 18.6769 18.5231 18.5241C18.4613 18.5133 18.3995 18.5032 18.3375 18.4936C18.5269 18.6825 18.7186 18.8733 18.907 19.0645C18.8855 19.3622 18.8925 19.365 18.9239 19.073C18.9105 18.9484 18.892 18.8244 18.8686 18.7012C18.6867 17.6658 17.1173 18.1055 17.2959 19.1334C17.2252 18.727 17.3025 19.4133 17.3353 19.4976C17.4787 19.86 17.7061 20.0344 18.0891 20.0958C18.1612 19.5614 18.2344 19.028 18.3047 18.4936C18.19 18.4999 18.0756 18.51 17.9616 18.5241C17.8903 19.057 17.8177 19.5909 17.7445 20.1244C19.2641 20.0573 20.7695 19.802 22.2262 19.3645C23.2312 19.0659 22.8014 17.4909 21.7922 17.7933Z" fill="#A87C4F"/>
<path d="M14.1 15.2442C15.4486 15.2405 16.7949 15.2002 18.1406 15.3C18.068 14.7661 17.9963 14.2312 17.9231 13.6983C17.4061 13.8225 16.8745 13.7981 16.3444 13.838C15.4453 13.9041 15.2133 15.172 16.1288 15.4397C16.5947 15.577 17.1117 15.6164 17.5617 15.8058C17.626 15.3089 17.6888 14.8116 17.7558 14.3156C16.8324 14.6573 15.9028 14.9662 14.9508 15.2133C14.3756 15.3623 14.1333 16.1634 14.5908 16.5764C14.7947 16.7606 14.9728 16.9425 15.2049 17.0962V15.69C15.0924 15.7641 14.9803 15.8391 14.8683 15.9145C14.4614 16.1855 14.2805 16.8352 14.7028 17.1961C14.9447 17.4033 15.1477 17.6152 15.4285 17.7722L15.6235 16.2797C15.4181 16.3678 15.2597 16.4503 15.0952 16.6027C14.7333 16.9345 14.7881 17.6672 15.2597 17.8833C15.4397 17.9648 15.601 18.0361 15.7931 18.0764C16.8188 18.2897 17.2552 16.7184 16.2272 16.5047C16.1785 16.4944 16.1316 16.4841 16.0842 16.4752L16.2488 17.7548C16.186 17.7877 16.1217 17.8209 16.058 17.8533C16.665 17.5992 16.9336 16.7405 16.2525 16.3612C16.0969 16.2741 15.9919 16.1559 15.8569 16.0397C15.8006 16.4667 15.7486 16.8933 15.6914 17.3194C15.8044 17.2467 15.916 17.1717 16.0285 17.0958C16.5511 16.748 16.5539 16.035 16.0285 15.6848C15.9369 15.5937 15.8425 15.5055 15.7453 15.4205C15.6239 15.8747 15.5044 16.3289 15.3839 16.7836C16.336 16.5375 17.2683 16.2267 18.1889 15.8845C18.7622 15.6741 19.1058 14.6995 18.3839 14.3953C17.7891 14.1436 17.1774 14.0442 16.5619 13.8633C16.4902 14.3981 16.4161 14.9325 16.3439 15.4655C17.0231 15.4167 17.6916 15.4289 18.3577 15.2681C19.2952 15.0431 19.02 13.7311 18.1402 13.6664C16.7944 13.5666 15.4481 13.6059 14.0995 13.6097C13.0486 13.6162 13.0486 15.2461 14.0995 15.2442" fill="#A87C4F"/>
<path d="M19.9988 15.4387C21.2874 15.847 22.4991 16.432 23.6752 17.0967C23.8838 16.5998 24.0933 16.1025 24.3028 15.6061C23.9705 15.5147 23.6438 15.4987 23.3011 15.4641C22.9369 15.4256 22.6149 15.743 22.5141 16.0617C22.6627 15.5831 23.2224 15.6028 22.8338 15.6141C22.6256 15.6145 22.4156 15.593 22.2108 15.5747C21.8447 15.54 21.4805 15.4767 21.113 15.4641C20.3897 15.4383 20.0489 16.3659 20.5364 16.8562C20.9142 17.2373 21.3174 17.3494 21.8414 17.3747C22.8947 17.4305 22.8886 15.7997 21.8414 15.7439C21.7927 15.7294 21.7406 15.7162 21.6909 15.7022C21.4978 16.1658 21.307 16.6298 21.1139 17.0953C22.0078 17.1248 23.7127 17.6995 24.0877 16.4958C23.8256 16.6964 23.5645 16.8956 23.302 17.0953C23.4933 17.1061 23.6831 17.1347 23.8711 17.1778C24.7613 17.423 25.3102 16.1461 24.4983 15.6867C23.2036 14.9545 21.8531 14.3142 20.4333 13.8652C19.4245 13.5483 18.998 15.1247 19.9988 15.4387Z" fill="#A87C4F"/>
<path d="M24.5765 18.45C24.3989 18.6511 24.2133 18.8391 24.008 19.0111C24.0581 18.9764 24.0426 18.9872 23.9625 19.0458C23.9142 19.08 23.8655 19.1119 23.8162 19.1447C23.7657 19.1758 23.7145 19.2057 23.6625 19.2342C23.6761 19.2248 23.4183 19.3547 23.5345 19.3055C23.1248 19.4766 22.8365 19.8384 22.964 20.3091C23.0709 20.6953 23.557 21.0511 23.9676 20.8786C24.6609 20.5884 25.2314 20.1656 25.732 19.6031C26.0269 19.2708 26.0583 18.7772 25.732 18.4495C25.4297 18.1509 24.8714 18.1177 24.5765 18.4495" fill="#A87C4F"/>
<path d="M7.48078 20.4042C7.9125 20.4047 8.34047 20.4628 8.76984 20.5177C9.21234 20.5725 9.58453 20.1037 9.58453 19.702C9.58453 19.2141 9.21046 18.9417 8.76984 18.8855C8.34047 18.8325 7.9125 18.7777 7.48078 18.7734C7.03406 18.7697 6.66422 19.1484 6.66422 19.5905C6.66422 20.0377 7.03406 20.4005 7.48078 20.4042Z" fill="#A87C4F"/>
<path d="M10.9439 2.4764C8.46376 3.62296 7.42829 5.71406 8.59079 8.04187C9.28454 9.43078 10.3875 10.627 11.2847 11.9133C12.4294 13.5577 12.4074 15.0619 11.498 16.7991C11.1436 17.4736 12.2752 18.0647 12.6314 17.3859C13.9167 14.9358 13.6449 13.0059 12.0234 10.7672C10.2816 8.36109 7.57126 5.34515 11.6072 3.48047C12.3595 3.13265 11.6944 2.12859 10.9444 2.475" fill="#E6E7E8"/>
<path d="M15.2461 18.7425C16.4133 17.438 16.6805 16.1184 16.0847 14.535C15.4322 12.8025 14.1441 11.3939 14.123 9.49452C14.1047 7.92187 14.9845 6.38952 15.5967 4.94906C16.2248 3.46921 16.5389 1.98843 16.2019 0.419994C16.0453 -0.315475 14.7816 -0.00422507 14.9348 0.7289C15.5372 3.55546 13.3078 6.01124 12.878 8.72577C12.6787 9.98999 12.9506 11.2266 13.5356 12.3839C14.4553 14.2012 15.9848 16.0551 14.3161 17.9203C13.7967 18.502 14.7197 19.3266 15.2461 18.7416" fill="#E6E7E8"/>
<path d="M19.2938 16.9359C19.2783 15.6586 19.0884 14.4914 18.6197 13.2825C18.3994 12.7181 18.0239 12.2231 17.8195 11.6508C17.6142 11.0775 18.0225 10.3987 18.3183 9.92109C19.3116 8.32078 20.3583 7.06593 19.2909 5.24484C18.8986 4.57828 17.7661 5.16656 18.1533 5.83031C19.1958 7.6064 17.0053 9.04453 16.5511 10.7058C16.3158 11.5617 16.6556 12.3277 17.0756 13.0866C17.7544 14.3194 17.9611 15.5756 17.9766 16.9359C17.9888 17.6855 19.3031 17.6855 19.2938 16.9359Z" fill="#E6E7E8"/>
</g>
<defs>
<clipPath id="clip0_11_912">
<rect width="30" height="30" fill="white"/>
</clipPath>
</defs>
</svg>
